<?xml version="1.0" standalone="no"?>
<!DOCTYPE svg PUBLIC "-//W3C//DTD SVG 1.1//EN" "http://www.w3.org/Graphics/SVG/1.1/DTD/svg11.dtd" >
<!--
2013-9-30: Created.
-->
<svg>
<metadata>
Created by iconfont
</metadata>
<defs>

<font id="iconfont" horiz-adv-x="1024" >
  <font-face
    font-family="iconfont"
    font-weight="500"
    font-stretch="normal"
    units-per-em="1024"
    ascent="896"
    descent="-128"
  />
    <missing-glyph />
    
    <glyph glyph-name="x" unicode="x" horiz-adv-x="1001"
d="M281 543q-27 -1 -53 -1h-83q-18 0 -36.5 -6t-32.5 -18.5t-23 -32t-9 -45.5v-76h912v41q0 16 -0.5 30t-0.5 18q0 13 -5 29t-17 29.5t-31.5 22.5t-49.5 9h-133v-97h-438v97zM955 310v-52q0 -23 0.5 -52t0.5 -58t-10.5 -47.5t-26 -30t-33 -16t-31.5 -4.5q-14 -1 -29.5 -0.5
t-29.5 0.5h-32l-45 128h-439l-44 -128h-29h-34q-20 0 -45 1q-25 0 -41 9.5t-25.5 23t-13.5 29.5t-4 30v167h911zM163 247q-12 0 -21 -8.5t-9 -21.5t9 -21.5t21 -8.5q13 0 22 8.5t9 21.5t-9 21.5t-22 8.5zM316 123q-8 -26 -14 -48q-5 -19 -10.5 -37t-7.5 -25t-3 -15t1 -14.5
t9.5 -10.5t21.5 -4h37h67h81h80h64h36q23 0 34 12t2 38q-5 13 -9.5 30.5t-9.5 34.5q-5 19 -11 39h-368zM336 498v228q0 11 2.5 23t10 21.5t20.5 15.5t34 6h188q31 0 51.5 -14.5t20.5 -52.5v-227h-327z" />
    

    
    <glyph glyph-name="weibo" unicode="&#58880;" d="M407.859 225.653c-15.395-1.61-26.392-14.995-26.392-27.765 0-12.799 12.41-21.669 27.719-19.871 15.221 1.762 27.718 13.596 27.718 26.312C436.905 217.218 425.425 227.367 407.859 225.653zM446.197 321.816c-81.6-3.708-147.581-47.4-147.581-101.98 0-54.469 65.981-95.343 147.581-91.562 81.6 3.712 147.736 54.854 147.736 109.274C593.933 291.982 527.796 325.602 446.197 321.816zM501.715 184.731c-24.915-32.244-74.336-48.024-122.438-22.02-22.807 12.378-22.025 36.741-22.025 36.741s-9.447 76.924 72.618 86.526C512.104 295.546 526.785 217.021 501.715 184.731zM446.742 236.235c-5.315-3.871-6.321-11.09-3.516-15.667 2.735-4.604 9.062-5.187 14.296-1.318 5.073 4.021 7.102 11.019 4.368 15.659C459.16 239.437 452.833 240.724 446.742 236.235zM499.997 748.607c-246.834 0-446.896-200.066-446.896-446.896 0-246.875 200.062-446.905 446.896-446.905 246.841 0 446.902 200.03 446.902 446.905C946.899 548.541 746.838 748.607 499.997 748.607zM666.875 201.439c-33.661-71.478-144.543-106.237-226.844-99.796-78.096 6.125-178.508 32.026-188.978 126.664 0 0-5.464 42.746 35.999 98.185 0 0 59.737 83.487 129.389 107.219 69.662 23.703 77.7-16.399 77.7-40.094-3.666-20.107-10.7-31.855 15.457-23.779 0 0 68.494 31.741 96.597 3.599 22.807-22.766 3.753-54.037 3.753-54.037s-9.453-10.398 9.992-14.168C639.311 301.399 700.53 273.053 666.875 201.439zM599.405 398.929c-7.419 0-13.429 6.001-13.429 13.395 0 7.494 6.01 13.547 13.429 13.547 0 0 83.869 15.493 73.871-74.615 0-0.584-0.081-0.98-0.155-1.402-1.091-6.4-6.556-11.323-13.118-11.323-7.579 0-13.589 6.012-13.589 13.396C646.414 351.925 659.692 412.251 599.405 398.929zM741.212 336.108h-0.075c-2.264-32.577-9.837-21.163-18.898-21.163-10.773 0-19.365 5.382-19.365 16.248 0 9.331 3.821 17.207 3.821 17.207 1.092 3.908 10.309 27.576-6.004 64.157-29.839 50.082-89.96 50.405-97.069 47.513-7.027-2.763-17.727-4.416-17.727-4.416-10.774 0-19.519 8.669-19.519 19.366 0 9.066 5.93 16.482 14.21 18.828 0 0 0.23 0.024 0.545 0.115 0.546 0.109 1.173 0.233 1.873 0.307 8.281 1.563 38.109 13.002 67.162 6.216C702.086 488.416 773.236 433.452 741.212 336.108z"  horiz-adv-x="1000" />

    
    <glyph glyph-name="yonghu" unicode="&#58881;" d="M509.952-143.3951c-246.0099 0-445.44 199.4342-445.44 445.4472 0 246.0058 199.4301 445.4369 445.44 445.4369 246.0129 0 445.44-199.4301 445.44-445.4369C955.392 56.0392 755.9649-143.3951 509.952-143.3951zM509.952 663.9644c-199.8828 0-361.9174-162.0378-361.9174-361.9133 0-93.4769 35.7417-178.3972 93.9131-242.6153 52.4206 25.3532 33.1725 4.2486 101.7518 32.4833 70.1778 28.8522 86.8035 38.912 86.8035 38.912l0.6656 66.4996c0 0-26.2902 19.9557-34.4535 82.5283-16.4485-4.7165-21.8798 19.1683-22.8516 34.3716-0.8765 14.6872-9.516 60.5665 10.5482 56.4275-4.1052 30.633-7.0482 58.2564-5.6074 72.8965 5.0299 51.3782 54.8854 105.0522 131.6844 108.9679 90.3291-3.9076 126.1076-57.556 131.1242-108.927 1.4694-14.6412-1.7531-42.2902-5.8655-72.8699 20.0765 4.0847 11.35-41.7188 10.3711-56.407-0.8827-15.2115-6.4348-39.0144-22.8434-34.2958-8.1981-62.5725-34.4873-82.3788-34.4873-82.3788l0.6185-66.1545c0 0 16.6185-9.4198 86.8024-38.273 68.5814-28.2266 49.3251-8.3743 101.7416-33.7869 58.1755 64.2243 93.9203 149.1436 93.9203 242.6214C871.8715 501.9277 709.8348 663.9644 509.952 663.9644z"  horiz-adv-x="1024" />

    
    <glyph glyph-name="shezhi" unicode="&#58882;" d="M960.2683 203.6754l-122.2164-39.2294 55.593-111.2105-134.0928-134.4778-110.8695 55.7435-39.1066-122.6107h-189.60384l-39.1076 122.6107-110.8685-55.7435L135.9155 53.2355l55.5776 111.2105-126.7384 39.2294V393.83936l126.7384 39.2305-55.5776 111.2115 134.0805 134.4758 110.8685-55.7425 39.1076 124.8522h189.60384l39.1066-124.8522 110.8695 55.7425 134.0928-134.4758-55.593-111.2115 122.2164-39.2305V203.675392zM515.5871 540.6451c-131.3331 0-237.8138-106.7817-237.8138-238.4978 0-131.7683 106.4806-238.551 237.8138-238.551 131.3311 0 237.8127 106.7827 237.8127 238.551C753.4008 433.8624 646.9181 540.6451 515.5871 540.6451zM515.4918 195.0369c-58.9548 0-106.7418 47.9508-106.7418 107.0561 0 59.1596 47.787 107.0838 106.7418 107.0838 58.9537 0 106.7418-47.9242 106.7418-107.0838C622.2336 242.9878 574.4456 195.0369 515.4918 195.0369z"  horiz-adv-x="1024" />

    
    <glyph glyph-name="weixin" unicode="&#58890;" d="M570.625024 301.206272c-10.160128 0-20.32128-9.435136-20.32128-21.046272 0-9.435136 10.160128-18.869248 20.32128-18.869248 15.240192 0 26.126336 9.435136 26.126336 18.869248C596.75136 291.771136 585.865216 301.206272 570.625024 301.206272zM503.856128 399.181568c15.966208 0 26.126336 10.160128 26.126336 25.401344 0 15.966208-10.160128 25.401344-26.126336 25.401344-15.240192 0-29.755392-9.435136-29.755392-25.401344C474.100736 409.341696 488.615936 399.181568 503.856128 399.181568zM511.839232 746.282752c-246.009856 0-445.44-199.430144-445.44-445.44s199.430144-445.44 445.44-445.44 445.44 199.430144 445.44 445.44S757.849088 746.282752 511.839232 746.282752zM427.65312 187.98976c-26.852352 0-46.447616 4.354048-71.84896 11.61216l-73.299968-37.013504 21.046272 62.413824c-51.52768 36.287488-82.009088 82.009088-82.009088 137.89184 0 98.701312 92.895232 174.178304 206.111744 174.178304 100.15232 0 189.41952-59.510784 206.83776-143.69792-7.257088 1.451008-13.789184 2.177024-19.595264 2.177024-98.701312 0-174.90432-74.025984-174.90432-163.29216 0-15.240192 2.177024-29.029376 5.80608-43.544576C439.991296 187.98976 433.4592 187.98976 427.65312 187.98976zM730.289152 116.866816l14.5152-52.253696-55.156736 31.207424c-21.046272-4.354048-41.367552-10.886144-62.413824-10.886144-97.250304 0-174.178304 66.768896-174.178304 149.502976s76.929024 149.502976 174.178304 149.502976c92.169216 0 174.90432-66.768896 174.90432-149.502976C802.137088 187.98976 770.930688 146.622208 730.289152 116.866816zM360.159232 449.983232c-15.240192 0-31.207424-9.435136-31.207424-25.401344 0-15.240192 15.966208-25.401344 31.207424-25.401344 14.5152 0 26.126336 10.160128 26.126336 25.401344C386.285568 440.54912 374.673408 449.983232 360.159232 449.983232zM684.566528 301.206272c-10.886144 0-20.32128-9.435136-20.32128-21.046272 0-9.435136 9.435136-18.869248 20.32128-18.869248 14.5152 0 25.401344 9.435136 25.401344 18.869248C709.967872 291.771136 699.081728 301.206272 684.566528 301.206272z"  horiz-adv-x="1024" />

    
    <glyph glyph-name="yonghu01" unicode="&#59054;" d="M635.982843 199.796834c-5.539389 1.802042-40.502113 17.566074-18.655655 83.98888l-0.302911 0c56.945287 58.640562 100.470373 153.060001 100.470373 245.983367 0 142.900617-95.035366 217.781048-205.458832 217.781048-110.495101 0-204.983998-74.880431-204.983998-217.781048 0-93.298919 43.285622-188.090842 100.571684-246.595304 22.322315-58.574047-17.602629-80.31828-25.959298-83.376942C266.006308 157.974309 130.336818 81.732881 130.336818 6.476897c0-20.317745 0-8.019651 0-28.201296 0-102.536304 198.796829-125.846196 382.78375-125.846196 184.257084 0 380.542615 23.309892 380.542615 125.846196 0 20.182668 0 7.883551 0 28.201296C893.663182 84.008714 757.314188 159.637182 635.982843 199.796834z"  horiz-adv-x="1024" />

    
    <glyph glyph-name="jinggao" unicode="&#58946;" d="M153.901-81.725c-31.451 0.008-63.214 0.917-80.808 33.211-17.099 31.385-4.285 60.059 11.901 87.212 117.613 197.297 235.313 394.541 353.333 591.591 41.507 69.296 120.005 69.69 160.906 0.301C713.961 435.969 828.45 241.197 941.42 45.56c12.151-21.037 17.875-47.938 19.227-72.52 1.758-32.021-21.748-53.272-54.012-54.297M569.754 355.032c0 37.656 0.521 75.32-0.159 112.962-0.583 32.439-26.393 57.628-57.356 57.509-30.435-0.12-54.396-24.434-54.572-57.011-0.396-73.804-0.401-147.613 0-221.413 0.186-33.45 24.773-58.489 55.88-58.504 31.653-0.017 55.625 24.245 56.12 58.01C570.198 282.726 569.787 318.883 569.754 355.032zM567.99 81.604c0.252 31.508-23.576 55.313-55.34 55.279-31.8-0.031-55.813-23.764-55.726-55.059 0.088-31.081 24.569-55.738 55.465-55.872C543.155 25.823 567.738 50.427 567.99 81.604z"  horiz-adv-x="1024" />

    
    <glyph glyph-name="ordinarymobile" unicode="&#59011;" d="M684.864 771.424 339.136 771.424c-43.2 0-78.592-35.456-78.592-78.592l0-785.6c0-43.264 35.392-78.72 78.592-78.72l345.728 0c43.136 0 78.528 35.52 78.528 78.72L763.392 692.832C763.392 735.968 728 771.424 684.864 771.424M464.896 708.512l94.208 0c8.832 0 15.744-7.04 15.744-15.68 0-8.704-6.912-15.744-15.744-15.744L464.896 677.088c-8.704 0-15.68 7.04-15.68 15.744C449.216 701.472 456.128 708.512 464.896 708.512M512-139.872c-26.048 0-47.168 21.12-47.168 47.104 0 26.112 21.12 47.104 47.168 47.104s47.104-20.992 47.104-47.104C558.976-118.752 538.112-139.872 512-139.872M732.032-14.24 292.032-14.24 292.032 614.304l440 0L732.032-14.24z"  horiz-adv-x="1024" />

    
    <glyph glyph-name="youjian" unicode="&#58913;" d="M955.002556 21.033427c1.836835 5.389754 3.056616 11.0558 3.056616 17.036002L958.059172 533.553267c0 5.678326-1.13587 11.0558-2.797719 16.202007L664.164608 300.515746 955.002556 21.033427zM511.840364 240.407764l76.673264 62.379723 38.800701 31.57002 292.323788 250.218832c-4.802376 1.426489-9.779737 2.428306-15.023158 2.428306L119.108748 587.004643c-5.256724 0-10.246365-1.001817-15.053857-2.439562l292.493657-250.351861 38.812981-31.582299L511.840364 240.407764zM904.614959-15.380924c5.025457 0 9.80532 0.930185 14.425547 2.24718L625.362884 268.956983l-113.52252-92.378967-113.341395 92.234681L104.700597-13.146023c4.615111-1.303692 9.387811-2.233877 14.408151-2.233877L904.614959-15.3799zM68.461231 549.755274c-1.661849-5.14723-2.797719-10.523681-2.797719-16.202007L65.663512 38.070452c0-5.992481 1.220804-11.658528 3.056616-17.036002l290.972001 279.360546L68.461231 549.755274z"  horiz-adv-x="1024" />

    
    <glyph glyph-name="qq" unicode="&#58902;" d="M511.999998 812C229.232866 812 0.021487 582.779412 0.021487 300s229.211379-512 511.978511-512 511.978511 229.220588 511.978511 512S794.76713 812 511.999998 812zM793.886063 140.426655c-13.223163-12.342096-35.924187 1.102101-57.744145 31.296797-9.476839-25.566282-21.818935-49.149397-36.144198-70.309322 30.854728-11.019984 50.691519-28.211529 50.691519-47.608298 0-33.500998-59.287291-60.611449-132.457778-60.611449-43.417859 0-81.767282 9.476839-106.010429 24.24417-24.023136-14.767332-62.59257-24.24417-106.010429-24.24417-73.17151 0-132.457778 27.109428-132.457778 60.611449 0 19.174712 19.835767 36.586267 50.691519 47.608298-14.546298 21.158902-26.66736 44.742017-36.144198 70.309322-21.818935-29.974685-44.518936-43.639916-57.744145-31.296797-18.072611 16.97051-11.239995 76.921927 15.647375 133.785006 6.170536 13.004175 12.783141 24.685215 19.614733 34.82311 3.746324 165.30386 112.62201 297.986765 246.180865 297.986765l0.441045 0c133.558855 0 242.434541-132.462894 246.180865-297.986765 6.832615-10.138918 13.444197-21.819958 19.614733-34.82311C804.906048 217.347558 811.958674 157.397165 793.886063 140.426655z"  horiz-adv-x="1024" />

    
    <glyph glyph-name="qq1" unicode="&#58888;" d="M685.466 397.874 360.722 397.874 574.562 361.222 344.884 174.028 693.384 174.028 487.462 218.598ZM516.026 766C257.784 766 48.412 556.628 48.412 298.386c0-258.24 209.372-467.588 467.614-467.588 258.24 0 467.562 209.348 467.562 467.588C983.588 556.628 774.266 766 516.026 766zM820.026 382.136l-118.82-100.726 39.492-253.578c-7.918-7.894-8.112-7.894-16.078-7.894l-206.31 126.79L311.56 19.938c-15.836 0-17.464 0-17.464 7.894l28.442 253.578-125.332 110.926L154.36 422.748l-12.096 0 0 1.312 12.096-1.312 111.292 0 134.658 0 31.698 56.472 79.206 167.376c7.894 0 7.894 0 15.862 0l87.1-167.376 31.698-56.472 134.612 0 79.23 0c7.918 0 7.918 4.638 7.918-3.304L820.026 382.136z"  horiz-adv-x="1024" />

    
    <glyph glyph-name="heimingdan" unicode="&#59483;" d="M921.700079 473.727717c-22.420639 53.008284-54.514591 100.611465-95.390557 141.487432-40.875966 40.875966-88.479147 72.969918-141.488455 95.390557-54.889121 23.215748-113.185852 34.986839-173.272345 34.986839s-118.384247-11.771091-173.272345-34.986839c-53.008284-22.420639-100.611465-54.514591-141.487432-95.390557s-72.969918-88.479147-95.390557-141.487432c-23.215748-54.889121-34.986839-113.185852-34.986839-173.272345 0-60.086493 11.771091-118.384247 34.986839-173.273369 22.420639-53.008284 54.514591-100.611465 95.390557-141.487432 40.875966-40.875966 88.479147-72.970942 141.487432-95.391581 54.889121-23.215748 113.185852-34.986839 173.272345-34.986839s118.384247 11.772115 173.272345 34.986839c53.009308 22.420639 100.611465 54.514591 141.488455 95.391581 40.874943 40.874943 72.969918 88.479147 95.390557 141.487432 23.215748 54.889121 34.986839 113.185852 34.986839 173.273369C956.686918 360.540841 944.914804 418.838595 921.700079 473.727717zM511.548722-113.984662c-228.522694 0-414.43901 185.91734-414.43901 414.43901 0 110.018719 43.096541 210.156394 113.288183 284.433074l591.402421-579.982324C726.976166-68.588753 624.465444-113.984662 511.548722-113.984662zM822.898843 27.213173 232.290507 606.416761c73.721025 67.344804 171.776272 108.476597 279.259238 108.476597 228.52167 0 414.43901-185.916317 414.43901-414.43901C925.987732 195.870408 887.042745 100.213791 822.898843 27.213173zM689.88234 337.258579c18.303878 29.228695 27.978215 62.990636 27.978215 97.633644 0 101.565187-82.629929 184.195116-184.195116 184.195116-72.811306 0-138.935306-43.018769-168.458713-109.596094 0 0 0-8.752338 10.011005-13.868869 9.653871-4.934382 18.053168 1.424442 18.053168 1.424442 24.605398 55.487755 79.713506 91.341335 140.394541 91.341335 84.637656 0 153.49593-68.858274 153.49593-153.49593 0-58.091046-32.191166-110.550839-84.012416-136.90916 0 0-8.498558-10.646478-2.803859-19.301602 6.65149-10.108219 16.72287-8.061606 16.72287-8.061606C646.909619 285.797533 672.088068 308.841366 689.88234 337.258579zM663.098323 257.971791c0 0-11.329023 0.553609-15.284101-7.942903-5.001921-10.744715 2.209318-19.832697 2.209318-19.832697 53.902654-25.372877 96.466052-69.496817 119.851669-124.244722 0 0 9.649777-7.151887 19.269879-2.139733 6.65149 3.465938 8.961092 14.199397 8.961092 14.199397C771.762185 179.685797 723.815173 229.390849 663.098323 257.971791zM457.342146 264.389968c-55.401798-15.633049-103.699804-47.861054-139.67311-93.200682-36.540218-46.055942-56.894801-101.468996-58.860573-160.252821-0.103354-3.086291-0.154519-6.207375-0.154519-9.278317 0 0 5.02341-7.455809 14.744819-7.455809 15.349593 0 15.954367 7.455809 15.954367 7.455809 0 2.732228 0.046049 5.510504 0.138146 8.253988 3.538593 105.801674 74.343195 196.194404 176.188768 224.931912 0 0 11.356652 4.951779 8.035 17.231453C469.447858 267.845673 457.342146 264.389968 457.342146 264.389968z"  horiz-adv-x="1024" />

    
    <glyph glyph-name="xiangshangjiantou" unicode="&#58953;" d="M140.367423 746.674179l740.693586 0 0-51.437509-740.693586 0 0 51.437509ZM155.026284 288.159324 191.359794 251.749066 484.995461 544.763586 484.995461-147.641203 536.43297-147.641203 536.43297 546.541069 830.068637 253.525526 866.402147 289.93476 511.764128 643.822696Z"  horiz-adv-x="1024" />

    
    <glyph glyph-name="xuexishuben" unicode="&#59144;" d="M914.285714 822.857143 658.285714 822.857143c-59.7504 0-112.892343-28.803657-146.285714-73.250743C478.608457 794.053486 425.464686 822.857143 365.714286 822.857143L109.714286 822.857143c-40.321829 0-73.142857-32.802743-73.142857-73.142857l0-676.571429c0-40.321829 32.786286-73.142857 73.142857-73.142857l268.856686 0c35.893029-35.072 83.642514-54.857143 133.429029-54.857143s97.536 19.785143 133.429029 54.857143L914.285714 0c40.321829 0 73.142857 32.786286 73.142857 73.142857L987.428571 749.714286C987.428571 790.036114 954.644114 822.857143 914.285714 822.857143zM914.285714 73.142857 629.608229 73.142857c-10.678857 0-20.821943-4.642743-27.785143-12.785371C578.929371 33.642057 546.179657 18.285714 512 18.285714s-66.929371 15.356343-89.821257 42.071771c-6.965029 8.142629-17.106286 12.785371-27.785143 12.785371L109.714286 73.142857 109.714286 749.714286l256 0c60.500114 0 109.714286-49.214171 109.714286-109.714286l0-310.857143c0-20.214857 16.356571-36.571429 36.571429-36.571429s36.571429 16.356571 36.571429 36.571429L548.571429 640c0 60.500114 49.214171 109.714286 109.714286 109.714286l256 0L914.285714 73.142857z"  horiz-adv-x="1024" />

    
    <glyph glyph-name="svg37" unicode="&#59466;" d="M127.232 669.728l594.496 0c37.504 0 67.936-30.4 67.936-67.936l0-379.296c0-37.536-30.4-67.936-67.936-67.936l-307.904 0-173.28-156.032-0.032 156.032-113.28 0c-37.504 0-67.936 30.4-67.936 67.936L59.296 601.792C59.296 639.296 89.728 669.728 127.232 669.728L127.232 669.728zM817.728 189.216 817.728 520.576l84.992 0c37.536 0 67.936-28.512 67.936-66.016l0-332.064c0-37.504-30.4-60.32-67.936-60.32l-113.504 0 0.192-154.976-170.752 154.976-130.88 0c-37.504 0-67.936 22.816-67.936 60.32 0 0 304 1.696 332.48 1.696C780.8 124.16 817.728 160.736 817.728 189.216L817.728 189.216zM817.728 189.216"  horiz-adv-x="1024" />

    
    <glyph glyph-name="bi1" unicode="&#59155;" d="M852.803431 687.907751c24.743544-23.343661 24.461111-23.038716 45.223994-42.664705 20.763906-19.627013 41.101093-72.387657 0-113.488751S360.445794-5.82836 360.445794-5.82836s-227.832985-94.718245-239.778038-99.836823c-11.9471-5.120624-22.385846 6.541997-17.066701 18.771529 5.319146 12.231579 99.836823 229.540883 99.836823 229.540883s505.441631 507.998873 538.436092 540.993335S828.057841 711.250388 852.803431 687.907751zM138.871349-70.111432l188.864462 79.641875-108.654652 105.240903L138.871349-70.111432zM232.236783 138.166171l119.462812-116.593462 397.212674 397.425521L630.373503 534.455823 232.236783 138.166171zM648.329457 552.55197l118.736265-115.516944 52.457746 52.193733L700.807668 604.923758 648.329457 552.55197zM718.407512 623.910181l120.092146-115.516944c0 0 25.39539 25.493627 43.528376 43.626613s21.866007 51.30448-2.666736 75.40948c-20.563338 20.206204-21.88545 21.22644-40.86164 39.359426s-56.308447 19.490913-75.151607 1.066285C744.505913 649.429391 718.407512 623.910181 718.407512 623.910181z"  horiz-adv-x="1024" />

    
    <glyph glyph-name="unie646" unicode="&#59130;" d="M523.968 783.744c-236.32 0-427.84-191.552-427.84-427.84s191.552-427.84 427.84-427.84c236.288 0 427.84 191.552 427.84 427.84s-191.552 427.84-427.84 427.84zM523.968-24.768c-210.272 0-380.704 170.4-380.704 380.704s170.4 380.672 380.704 380.672c210.24 0 380.704-170.4 380.704-380.704s-170.464-380.672-380.704-380.672zM546.08 355.552l0 301.44-44.224 0 0-342.816 0.032 0-0.032-2.464 342.848-2.944 0.416 44.192z"  horiz-adv-x="1024" />

    
    <glyph glyph-name="guanzhu" unicode="&#59098;" d="M858.1 185M221.2 662.9c26.1 48.6 66 81.9 118.1 101.2 43.6 16.2 88.9 20 135 16.7C509.5 778.2 543.1 770 574.5 754c48.8-24.9 82.5-63.1 102.3-113.2 16.8-42.5 21.8-86.8 16.8-131.9-7.9-72.1-26.8-141.5-58.8-207-19-38.9-43.5-74-78-101.6-29.2-23.4-62.2-37.5-100.4-39.5C393.3 157.7 343.8 184 303 229c-32.5 35.8-54.3 77.8-71 122.5l0 0c-18.8 50.3-32.1 101.9-38.4 155.2-1.2 10.4-1.4 21-1.8 26.9C192.2 581.9 200.3 623.9 221.2 662.9zM0.8-181.9c-0.1 1.8-0.3 3.3-0.3 4.9 0 27-0.1 54 0 81 0.1 21.7 2.5 43 10.6 63.4 10.4 26.2 29.3 44.9 54 58.1 32.5 17.5 67.4 29 102.9 38.9 47.5 13.3 95.9 21.2 144.9 26.5 61 6.5 118.7 11.7 180 9.7 29.8-1 63.1-7 93-8.9 1.4-0.1 2.8-0.5 3.5-0.6-1.4-125.8 55.3-216.2 168.6-272.9L0.8-181.8zM1024.5 59.3 901.6 59.3 901.6-61.4 819.7-61.4 819.7 59.3 696.8 59.3 696.8 139.4 819.7 139.4 819.7 260.4 901.6 260.4 901.6 139.4 1024.5 139.4Z"  horiz-adv-x="1025" />

    
    <glyph glyph-name="xiangxiajiantou" unicode="&#58891;" d="M512 107.103l305.521 333.45-611.041 0z"  horiz-adv-x="1024" />

    
    <glyph glyph-name="zhifubao" unicode="&#58939;" d="M587.9807 223.584983c0 0-75.962726-60.797941-103.602239-76.727606-24.297408-13.9945-47.098009-23.293878-67.394278-29.760406-20.332216-6.448554-38.145123-10.505611-53.436724-12.186149s-27.951056-2.739986-37.998338-3.232265c-0.950608-0.45733-2.155842-0.711957-3.580755-0.711957l-11.474192 0c-26.288491 0-51.024257 3.104452-74.208296 9.334327-23.201014 6.211901-43.388443 15.418414-60.597235 27.604564-17.208792 12.185151-30.838826 27.494725-40.867136 45.891776-10.029309 18.415025-15.05295 39.808686-15.05295 64.177989 0.475304 21.028197 6.210902 40.156177 17.190818 57.363971 11.015863 17.208792 25.229043 31.788435 42.676486 43.753907s36.811078 21.028197 58.0949 27.257073c21.265849 6.210902 42.657513 8.824074 64.178988 7.873467 21.028197-0.949609 41.34244-3.452942 60.945724-7.509 19.602286-4.073034 38.382775-8.969861 56.287548-14.707456 17.921747-5.736597 34.892887-11.9465 50.915417-18.651678 16.020532-6.704179 31.185318-13.153732 45.525313-19.365632 5.735598-2.392495 11.709847-4.787986 17.920749-7.179483 6.211901-2.392495 12.661453-4.786988 19.366631-7.179483 13.865689 17.684096 25.557562 35.003725 35.129541 51.992839 9.555003 16.972138 17.447442 32.499393 23.659343 46.603733 6.229874 14.104339 11.014865 25.923027 14.359965 35.496004 3.343103 9.555003 5.479973 16.241209 6.448554 20.077589L321.237437 463.801104l0 34.418582 147.010652 0 0 79.57843L263.873467 577.798116l0 34.418582 204.373625 0 0 64.544452c0 4.292712 2.374522 7.764626 7.16151 10.394773 4.785989 2.631146 10.285933 4.421523 16.496835 5.371132 7.179483 1.442886 15.2916 2.154843 24.370301 2.154843l55.208129 0 0-82.465201 210.092248 0 0-34.418582-210.092248 0 0-79.57843 166.959431 0c0.035947 0.236653 0.072893 0.475304 0.108841 0.710959l0-0.710959-0.108841 0c-3.380049-21.301796-9.060727-43.771881-17.098953-67.412252-6.686206-20.552893-16.605675-43.973586-29.761404-70.262077-13.152733-26.288491-30.472363-53.307912-51.99184-81.040289 0 0 164.565937-78.721685 338.283468-106.435089 28.846744 63.977283 44.922196 134.989262 44.922196 209.726783C1022.797761 664.887544 794.089783 893.577549 512 893.577549 229.892244 893.577549 1.202239 664.887544 1.202239 382.79876 1.202239 100.708977 229.892244-128 512-128c174.978684 0 329.406471 88.002091 421.462623 222.150584C839.926639 114.53772 740.561194 155.807267 587.9807 223.584983L587.9807 223.584983 587.9807 223.584983zM186.430908 246.530372c-1.91819-87.653601 97.244552-94.157075 112.536152-94.632378 50.549952-1.551727 91.363167 17.539308 123.13263 36.410664 31.787436 18.890329 83.634489 67.649903 85.570652 69.33144 1.900216 1.680538 3.818407 3.452942 5.718623 5.371132-13.865689 7.654787-27.493726 14.707456-40.867136 21.15601-13.372412 6.448554-81.386781 42.987031-141.730387 49.215906C216.520831 345.238779 187.016051 273.185326 186.430908 246.530372L186.430908 246.530372 186.430908 246.530372z"  horiz-adv-x="1024" />

    
    <glyph glyph-name="xia" unicode="&#59168;" d="M511.928 238.6208c2.2336 2.7568 3.3296 4.3888 4.6944 5.7536 114.6272 114.6384 229.288 229.2432 343.896 343.9008 8.7376 8.7424 18.7952 12.488 30.8528 8.9664 20.2256-5.9056 27.312-31.0608 13.4-47.0848-0.9536-1.0976-2.008-2.1088-3.0368-3.1376-122.312-122.2848-244.6416-244.5488-366.9008-366.8864-8.5616-8.5664-18.4032-13.0848-30.192-9.392-5.4448 1.7056-10.8688 5.224-14.9456 9.2832-72.3552 72.008-144.5008 144.2256-216.6912 216.3984-50.344 50.3312-100.696 100.656-151.0224 151.0032-11.5616 11.5664-13.1952 26.888-4.288 39.0912 10.0576 13.7776 29.4512 16.08 42.4176 4.9952 1.7184-1.4688 3.2912-3.1104 4.8928-4.712 114.192-114.1568 228.384-228.3168 342.5472-342.5024C508.9088 242.9424 509.9248 241.2432 511.928 238.6208z"  horiz-adv-x="1024" />

    
    <glyph glyph-name="weibiaoti12" unicode="&#59074;" d="M960 640 915.2 684.8 371.2 172.8 108.8 454.4 64 409.6 358.4 83.2 364.8 89.6 371.2 83.2Z"  horiz-adv-x="1024" />

    
    <glyph glyph-name="shoucang" unicode="&#59075;" d="M327.728136 91.698724l150.60509 60.966537 33.721009 13.627369 33.721009-13.627369 150.609183-60.914348-4.484128 166.562527-0.907673 32.985252 20.663622 25.711592 96.563266 120.353089L652.842749 484.425224l-30.030967 9.081843-17.825994 25.716708-92.931552 134.033669-92.871177-134.033669-17.825994-25.716708-30.033014-9.081843-155.490354-47.120181 96.566336-120.29476 20.663622-25.711592-0.907673-32.985252L327.728136 91.698724M789.940197-43.129031 512.054235 69.272969 234.17339-43.129031l8.115841 303.886125L62.389956 484.824313l282.879696 85.667102L512.054235 811.130054l166.843936-240.638639 282.711873-85.667102L781.766027 260.756071 789.940197-43.129031 789.940197-43.129031 789.940197-43.129031z"  horiz-adv-x="1024" />

    
    <glyph glyph-name="jia1" unicode="&#59138;" d="M487.158 773.462v-365.866l-362.14-0.001v-49.676l362.14-0.001v-360.898l49.678-0.001v360.901l363.381-0.001v49.678l-363.381-0.001v365.869z"  horiz-adv-x="1024" />

    
    <glyph glyph-name="xin" unicode="&#59034;" d="M512.011256 5.895523c-5.384637 0-10.768251 1.856277-15.129582 5.567809l-333.270363 283.751552c-0.473791 0.403183-0.931209 0.825808-1.372254 1.26583l-23.506367 23.502273c-48.924269 48.916083-75.866898 113.953332-75.866898 183.133947 0 69.179592 26.943652 134.216841 75.867922 183.130877 48.90892 48.916083 113.946168 75.857688 183.126784 75.857688s134.218888-26.940582 183.137017-75.858712l7.009647-7.006578 7.000438 7.003508c48.91506 48.921199 113.953332 75.862805 183.139064 75.862805 69.183685 0 134.226051-26.940582 183.145204-75.858712 48.90892-48.91506 75.843362-113.951285 75.843362-183.127807s-26.934442-134.214794-75.842339-183.131901l-23.527856-23.51046c-0.438998-0.437975-0.89437-0.859577-1.366114-1.260713L527.139815 11.464355C522.780531 7.7518 517.39487 5.895523 512.011256 5.895523zM194.579627 330.147488l317.430606-270.264377 317.41935 270.2654 22.861684 22.846334c82.760912 82.776262 82.760912 217.470987-0.007163 300.248272-40.101323 40.101323-93.422739 62.187341-150.140509 62.187341-56.716746 0-110.034069-22.084994-150.130276-62.187341l-23.500227-23.508413c-4.375657-4.377704-10.311857-6.837732-16.500812-6.838755-6.189979-0.001023-12.127202 2.456958-16.503882 6.833639l-23.514553 23.511483c-40.104393 40.104393-93.422739 62.190411-150.136416 62.190411-56.712653 0-110.026906-22.084994-150.123113-62.187341-40.10951-40.101323-62.196551-93.4166-62.196551-150.127206 0-56.710606 22.088064-110.026906 62.194504-150.126182L194.579627 330.147488z"  horiz-adv-x="1024" />

    
    <glyph glyph-name="send1179291easyiconnet" unicode="&#58970;" d="M964.154514 814.138514c-9.376914 5.983086-21.386971 6.144-30.866286 0.380343L60.459886 286.895543c-9.888914-5.968457-15.330743-17.2032-13.897143-28.642743 1.418971-11.454171 9.450057-21.006629 20.465371-24.3712l273.027657-83.485257 35.766857-177.664c2.077257-10.254629 9.450057-18.622171 19.368229-21.957486 3.042743-1.024 6.187886-1.521371 9.3184-1.521371 7.021714 0 13.955657 2.545371 19.382857 7.343543l141.282743 124.957257 289.9968-88.6784c2.794057-0.863086 5.690514-1.287314 8.557714-1.287314 5.661257 0 11.264 1.6384 16.091429 4.8128 7.2704 4.798171 12.039314 12.580571 13.0048 21.240686L977.495771 786.285714C978.709943 797.344914 973.546057 808.1408 964.154514 814.138514zM423.175314 34.069943l-19.499886 96.885029 95.890286-29.330286L423.175314 34.069943zM838.524343 59.157943l-363.271314 111.074743 294.107429 345.000229c5.237029 6.144 4.520229 15.374629-1.6384 20.611657-6.129371 5.251657-15.389257 4.520229-20.611657-1.6384L444.781714 179.551086l-298.027886 91.121371 766.083657 463.111314L838.524343 59.157943zM812.2368 315.143314c0.6144-0.087771 1.214171-0.117029 1.813943-0.117029 7.285029 0 13.589943 5.4272 14.496914 12.829257l2.720914 21.942857c0.994743 8.031086-4.695771 15.330743-12.712229 16.310857-8.001829 1.067886-15.316114-4.7104-16.310857-12.712229l-2.720914-21.942857C798.529829 323.423086 804.234971 316.123429 812.2368 315.143314zM792.736914 158.778514c0.702171-0.1024 1.404343-0.146286 2.091886-0.146286 7.153371 0 13.4144 5.251657 14.467657 12.551314l14.0288 97.879771c1.141029 8.001829-4.417829 15.403886-12.419657 16.559543-7.928686 1.1264-15.389257-4.417829-16.559543-12.419657l-14.0288-97.879771C779.190857 167.3216 784.749714 159.934171 792.736914 158.778514z"  horiz-adv-x="1024" />

    
    <glyph glyph-name="iconset0237" unicode="&#59018;" d="M341.333333 640l128 0 0 42.666667-128 0L341.333333 640zM341.333333 725.333333l170.666667 0L512 768l-170.666667 0L341.333333 725.333333zM810.666667 853.333333 128 853.333333C81.066667 853.333333 42.666667 814.933333 42.666667 768l0-768c0-46.933333 38.4-85.333333 85.333333-85.333333l768 0c46.933333 0 85.333333 38.4 85.333333 85.333333L981.333333 682.666667 810.666667 853.333333zM298.666667 810.666667l426.666667 0 0-256L298.666667 554.666667 298.666667 810.666667zM810.666667-42.666667 213.333333-42.666667 213.333333 341.333333l597.333333 0L810.666667-42.666667zM938.666667 0c0-23.466667-19.2-42.666667-42.666667-42.666667l-42.666667 0L853.333333 341.333333c0 23.466667-19.2 42.666667-42.666667 42.666667L213.333333 384c-23.466667 0-42.666667-19.2-42.666667-42.666667l0-384L128-42.666667c-23.466667 0-42.666667 19.2-42.666667 42.666667L85.333333 768c0 23.466667 19.2 42.666667 42.666667 42.666667l128 0 0-256c0-23.466667 19.2-42.666667 42.666667-42.666667l426.666667 0c23.466667 0 42.666667 19.2 42.666667 42.666667L768 810.666667l21.333333 0 149.333333-149.333333L938.666667 0zM597.333333 597.333333l85.333333 0L682.666667 768l-85.333333 0L597.333333 597.333333z"  horiz-adv-x="1024" />

    
    <glyph glyph-name="iconset03100" unicode="&#59159;" d="M893.866667 330.666667 772.266667 533.333333l121.6 202.666667 0 0C893.866667 738.133333 896 742.4 896 746.666667c0 12.8-8.533333 21.333333-21.333333 21.333333L554.666667 768 554.666667 832c0 12.8-8.533333 21.333333-21.333333 21.333333L149.333333 853.333333C136.533333 853.333333 128 844.8 128 832l0-896c0-12.8 8.533333-21.333333 21.333333-21.333333s21.333333 8.533333 21.333333 21.333333L170.666667 384l256 0 0-64c0-12.8 8.533333-21.333333 21.333333-21.333333l426.666667 0c12.8 0 21.333333 8.533333 21.333333 21.333333C896 324.266667 893.866667 328.533333 893.866667 330.666667L893.866667 330.666667zM170.666667 426.666667 170.666667 810.666667l341.333333 0 0-384L170.666667 426.666667zM469.333333 341.333333l0 42.666667 64 0c12.8 0 21.333333 8.533333 21.333333 21.333333L554.666667 725.333333l281.6 0-108.8-181.333333 0 0C727.466667 541.866667 725.333333 537.6 725.333333 533.333333c0-4.266667 2.133333-8.533333 4.266667-10.666667l0 0 108.8-181.333333L469.333333 341.333333z"  horiz-adv-x="1024" />

    
    <glyph glyph-name="xinxi" unicode="&#59055;" d="M870.652165 823.09561 149.713019 823.09561c-42.361768 0-76.70412-34.341393-76.70412-76.70412l0-575.246382c0-42.361768 34.341393-76.70412 76.70412-76.70412l157.742981 0L307.456-34.277154c0-10.590921 8.585109-19.17603 19.17603-19.17603 4.652105 0 8.914936 1.657768 12.236225 4.413363l0.086292-0.04027 184.871311 143.521079 346.826307 0c42.361768 0 76.70412 34.342352 76.70412 76.70412L947.356285 746.391491C947.356285 788.754217 913.012974 823.09561 870.652165 823.09561zM874.426966 711.910112l0-506.16761c0-21.181843-17.170217-38.35206-38.35206-38.35206L503.370787 167.390442l-88.064-72.949453L380.004674 65.198502l0 29.242487 0 72.949453L184.089888 167.390442c-21.180884 0-38.35206 17.170217-38.35206 38.35206L145.737828 711.910112c0 21.180884 17.171176 38.35206 38.35206 38.35206l651.985019 0C857.256749 750.262172 874.426966 733.090996 874.426966 711.910112L874.426966 711.910112zM342.690996 510.115955c-9.370367 8.330067-21.71206 13.389663-35.235955 13.389663-17.194187 0-32.478442-8.179536-42.172884-20.859685-6.825708-8.92836-10.880479-20.08785-10.880479-32.193678 0-15.594906 6.728869-29.618337 17.440599-39.325243 9.414472-8.531416 21.906697-13.729079 35.613723-13.729079 16.236345 0 30.768899 7.293603 40.500734 18.782921 7.830532 9.244764 12.552629 21.206772 12.552629 34.271401C360.508404 486.230292 353.621333 500.398502 342.690996 510.115955zM545.450667 510.499476c-9.315715 8.101873-21.484824 13.007101-34.800659 13.007101-14.088629 0-26.894382-5.491056-36.394187-14.450097-10.258217-9.673348-16.660135-23.390921-16.660135-38.603266 0-13.939056 5.375041-26.622082 14.166292-36.090247 9.688689-10.434637 23.526112-16.964075 38.88803-16.964075 16.071431 0 30.472629 7.145948 40.202547 18.433918 8.008869 9.291745 12.850816 21.390861 12.850816 34.620404C563.703371 486.438352 556.633169 500.772434 545.450667 510.499476zM745.426936 513.085363c-8.82385 6.547655-19.751311 10.421213-31.581963 10.421213-15.313019 0-29.109213-6.487251-38.793109-16.862442-8.84782-9.478712-14.261213-22.202007-14.261213-36.190921 0-14.088629 5.492015-26.895341 14.451056-36.394187 9.674307-10.257258 23.390921-16.659176 38.603266-16.659176 15.099206 0 28.724734 6.307955 38.385618 16.43194 9.087521 9.521858 14.667745 22.420614 14.667745 36.622382C766.898337 487.921618 758.455131 503.417768 745.426936 513.085363z"  horiz-adv-x="1024" />

    
    <glyph glyph-name="tianjia" unicode="&#58957;" d="M509.72826 803.146219c-231.475955 0-419.148265-187.67231-419.148265-419.148265 0-231.470839 187.67231-419.143149 419.148265-419.143149 231.498468 0 419.143149 187.67231 419.143149 419.143149C928.871409 615.473909 741.226728 803.146219 509.72826 803.146219L509.72826 803.146219zM745.847979 357.804385 535.921829 357.804385 535.921829 147.878235c0-14.278191-11.736299-25.846668-26.193569-25.846668-14.474666 0-26.198685 11.568477-26.198685 25.846668L483.529575 357.804385 273.603425 357.804385c-14.278191 0-25.841551 11.736299-25.841551 26.193569 0 14.474666 11.592013 26.198685 25.841551 26.198685l209.92615 0L483.529575 620.150418c0 14.250562 11.724019 25.813922 26.198685 25.813922 14.45727 0 26.193569-11.56336 26.193569-25.813922l0-209.953779 209.92615 0c14.305821 0 25.846668-11.724019 25.846668-26.198685C771.694647 369.540683 760.1538 357.804385 745.847979 357.804385L745.847979 357.804385zM745.847979 357.804385"  horiz-adv-x="1024" />

    
    <glyph glyph-name="03xihuan" unicode="&#58963;" d="M130.575918 705.366242c88.715531 85.717244 232.513588 85.717244 321.229119 0l60.165288-58.210773 60.295248 58.210773c88.650039 85.717244 232.508471 85.717244 321.158511 0 99.79589-96.474238 99.79589-252.785284 0-349.253382L511.970324-0.118448 130.575918 356.111836C30.780027 452.51649 30.780027 608.892003 130.575918 705.366242z"  horiz-adv-x="1024" />

    
    <glyph glyph-name="dianzan" unicode="&#59014;" d="M884.876 472.857h-237.905c92.186 340.464-63.517 357.853-63.517 357.853-65.993 0-52.312-52.182-57.303-60.882 0-166.502-176.85-296.972-176.85-296.972v-472.172c0-46.608 63.517-63.394 88.433-63.394h357.452c33.641 0 61.036 88.224 61.036 88.224 88.434 300.706 88.434 390.177 88.434 390.177 0.001 62.128-59.781 57.164-59.781 57.164v0 0zM251.671 472.7h-142.457c-29.42 0-29.873-28.896-29.873-28.896l29.42-476.203c0-30.309 30.361-30.309 30.361-30.309h123.297c25.686 0 25.459 20.050 25.459 20.050l-0 479.247c0 36.574-36.208 36.111-36.208 36.111v0 0zM251.671 472.7z"  horiz-adv-x="1024" />

    
    <glyph glyph-name="fenlei" unicode="&#59145;" d="M46.545455 756.363636l930.909091 0 0-46.545455-930.909091 0 0 46.545455ZM46.545455 407.272727l930.909091 0 0-46.545455-930.909091 0 0 46.545455ZM46.545455 58.181818l930.909091 0 0-46.545455-930.909091 0 0 46.545455Z"  horiz-adv-x="1024" />

    
    <glyph glyph-name="fenxiang" unicode="&#59096;" d="M807.084669 524.5552c85.283362 0 154.525376 69.249177 154.525376 154.529469 0 85.096097-69.242014 154.525376-154.525376 154.525376s-154.539702-69.429279-154.539702-154.525376c0-7.658424 0.717338-14.954597 1.785669-22.257933L329.428871 531.858536c-28.29851 29.9051-68.180845 48.773843-112.51354 48.773843-85.085864 0-154.525376-69.249177-154.525376-154.525376s69.439512-154.532539 154.525376-154.532539c33.289174 0 64.083527 10.68434 89.198531 28.484751l220.211401-146.691967c-9.074679-19.766183-14.226003-41.481763-14.226003-64.448848 0-85.276199 69.234851-154.529469 154.51105-154.529469 85.290525 0 154.539702 69.25327 154.539702 154.529469S751.899812 243.4448 666.609287 243.4448c-41.99751 0-80.102363-16.912182-107.87387-44.149523L345.989035 341.182822c16.025998 24.394596 25.634844 53.589522 25.634844 84.924181 0 20.292162-4.098341 39.692001-11.211343 57.500599l311.904753 119.995955C698.844455 556.425048 749.228983 524.5552 807.084669 524.5552L807.084669 524.5552zM216.915331 327.834816c-54.123688 0-98.265024 43.969421-98.265024 98.272187 0 54.298673 44.141336 98.448196 98.265024 98.448196 54.30686 0 98.448196-44.149523 98.448196-98.448196C315.363528 371.80526 271.221168 327.834816 216.915331 327.834816L216.915331 327.834816zM666.609287 187.191612c54.123688 0 98.280374-44.149523 98.280374-98.272187 0-54.298673-44.156686-98.455359-98.280374-98.455359-54.284347 0-98.441033 44.156686-98.441033 98.455359C568.168254 143.042089 612.32494 187.191612 666.609287 187.191612L666.609287 187.191612zM807.084669 777.356856c54.298673 0 98.455359-44.152593 98.455359-98.272187 0-54.295604-44.156686-98.452289-98.455359-98.452289-54.116525 0-98.265024 44.156686-98.265024 98.452289C708.819644 733.204264 752.968144 777.356856 807.084669 777.356856L807.084669 777.356856z"  horiz-adv-x="1024" />

    
    <glyph glyph-name="shangchuan" unicode="&#58993;" d="M511.741935 475.354838 511.741935 475.354838 512 475.354838 512.516129 475.354838 511.741935 475.354838ZM495.483871 468.129032 306.32258 279.483871C297.032258 270.451613 297.032258 255.483872 306.32258 245.935482 315.354838 236.903226 330.580645 236.903226 339.870968 245.935482L488.258065 394.32258 488.258065 75.133638C488.258065 62.230413 498.83871 51.133638 512 51.133638 525.16129 51.133638 535.741935 62.230413 535.741935 75.133638L535.741935 394.32258 684.387098 245.935482C693.677421 236.903226 708.645158 236.903226 718.193549 245.935482 726.967744 255.483872 726.967744 270.451613 718.193549 279.483871L528.516129 468.129032 527.483871 469.16129 526.451613 470.193548C525.16129 471.483871 524.129032 472 523.612903 472.774193L522.32258 472.774193C520.774193 474.064516 519.741935 474.32258 518.451613 474.32258L516.129032 474.83871 514.32258 475.354838 512.516129 475.354838 509.935484 475.354838 507.870968 474.83871 505.806452 474.32258C504.516129 474.32258 503.225807 474.064516 502.193548 473.290323L500.903226 472.774193C499.870968 472 498.83871 471.483871 498.32258 470.967742L496.516129 469.67742 495.483871 468.129032ZM820.387098 129.548384C854.709677 129.806451 886.451616 143.741933 908.387098 166.193549 931.096774 189.419354 945.032256 220.387098 945.032256 255.483872 945.032256 286.451613 934.451616 314.32258 916.12903 336.774193 897.548384 358.709677 871.225805 374.193548 841.032256 379.354838 821.677421 383.225807 808 399.483871 808 418.32258L808 418.580645C808 493.16129 777.806451 561.290323 728.774195 610.064516 679.741933 659.096774 611.870968 689.548387 537.548387 689.548387 482.064516 689.548387 430.709677 673.032258 388.129032 645.419355 344 615.741935 309.16129 574.709677 288 525.419355 281.806452 510.709677 267.870968 501.67742 252.645162 501.16129 204.129032 498.580645 161.032258 477.16129 129.290323 443.354838 97.806452 410.580645 78.967742 365.419355 78.967742 315.870968 78.967742 264.258065 99.612903 217.548384 133.16129 184L133.67742 184C167.225807 150.193549 213.67742 129.548384 264.774193 129.548384L281.290323 129.548384 282.32258 129.548384 382.967742 129.548384 394.83871 129.548384C416.774193 129.548384 434.580645 111.483872 434.580645 90.064518 434.580645 68.645158 416.774193 50.580646 394.83871 50.580646L382.967742 50.580646 282.32258 50.580646 281.290323 50.580646 264.774193 50.580646C191.741935 50.580646 125.419355 80 77.419355 128.774195 29.677419 176.516128 0 242.838707 0 315.870968 0 385.806452 27.354839 450.32258 72.258065 497.806452 112 539.354838 165.67742 568.258065 225.548387 577.806452 253.419355 632 294.709677 677.16129 345.032258 710.193548 400.258065 746.83871 466.32258 768 537.548387 768 633.548387 768 721.032256 729.032258 784.516128 665.806452 841.032256 609.032258 878.451616 533.16129 885.935482 449.032258 921.032256 437.419355 952.258067 414.967742 975.741933 387.096774 1005.935482 351.483871 1024 305.290323 1024 255.483872 1024 198.709677 1001.032256 147.612902 964.12903 110.451616L963.87097 110.451616C931.612902 77.935482 888.258067 56.774195 840 51.354842 837.161293 51.096774 834.064518 50.580646 830.967744 50.580646L820.645158 50.580646 819.354842 50.580646 644.12903 50.580646 642.580646 50.580646C620.903226 50.580646 603.354838 68.645158 603.354838 90.064518 603.354838 111.483872 620.903226 129.548384 642.580646 129.548384L644.12903 129.548384 820.387098 129.548384Z"  horiz-adv-x="1024" />

    
    <glyph glyph-name="qianqianqian" unicode="&#58900;" d="M510.337639 835.542046c-247.512187 0-448.16002-200.648856-448.16002-448.16002 0-247.512187 200.647833-448.161043 448.16002-448.161043 247.51321 0 448.158996 200.648856 448.158996 448.161043C958.496635 634.89319 757.850849 835.542046 510.337639 835.542046zM385.027655 646.495436c11.216459 9.156544 31.502481-6.461155 44.341904-3.809769 11.302417 2.363837 14.283308 8.93551 27.866674 17.58961 10.691503 6.704702 26.989701 4.14132 33.214473-2.914376 6.309706-7.030114 17.700127-13.713326 17.700127-13.713326s3.679809 0.436952 13.232372 9.704013c9.641591 9.200546 18.314111 14.567787 34.438347 8.457626 16.124236-6.025227 18.402115-19.741623 34.704406-19.478633 16.520255 0.306992 22.341844 11.94096 36.628222 6.309706 16.431228-6.506181 9.818623-26.747177-3.025916-34.831296-15.332197-9.79304-22.255887-20.240997-30.362518-31.195489-8.236592-10.977006-21.73093-24.841781-21.73093-24.841781L444.177823 557.771719c0 0-15.685237 15.969717-24.183795 28.302603-8.457626 12.356422-19.456121 21.798469-29.53364 29.002544C380.382868 622.420111 373.855198 637.405407 385.027655 646.495436zM724.820572 251.509477c-14.19428-83.289961-88.595804-151.461597-215.442794-151.461597-130.96682 0-200.061478 82.365916-213.338876 154.969491-14.941294 81.622996 24.752754 149.734256 73.740468 192.319144 42.678008 37.001729 69.405743 76.718289 69.405743 76.718289l139.336442 0c0 0 25.584702-37.941124 73.173556-77.901231C692.177104 412.15627 742.173798 353.225089 724.820572 251.509477zM574.489728 297.032276c11.916401-0.12996 16.124236 6.046716 16.387225 13.495362 0.173962 6.52767-5.916756 18.62008-16.650215 18.928095l-47.585785 0 0 11.455913c0 0 36.103266 36.85028 45.481867 45.326325 9.330506 8.543583 11.653411 15.248286 5.867638 22.149463-5.782703 7.052626-16.123212 6.594185-23.660886 0.350994-7.621585-6.353708-44.515866-40.573067-44.515866-40.573067s-31.635511 32.641421-38.46915 39.193651c-6.176676 5.913687-19.190061 11.697413-26.201755 3.723811-7.359618-8.324596-1.663896-18.687618 2.891863-23.221888 4.600785-4.514827 44.164872-46.38033 44.164872-46.38033l-0.084934-12.595876-49.51267 0c-7.362688 0-13.846356-13.011338-13.672394-19.978007 0.306992-6.879688 5.783727-12.31242 13.672394-12.31242 7.710612 0 49.334615 0.306992 49.334615 0.306992l-0.084934-35.137265-51.353598 0c-7.274684 0-13.495362-7.318686-13.757329-14.33038-0.26299-6.879688 5.476735-16.299221 13.757329-16.299221l51.265594 0c0 0-0.088004-12.001335 0.173962-17.038048 0.791016-11.17962 8.061606-15.776312 17.877159-15.906272 9.815553-0.1361 16.739243 8.017604 16.739243 15.375176 0 6.048763-0.174985 17.569144-0.174985 17.569144s42.673915 0.045025 50.695612 0c8.106632-0.084934 14.06432 8.106632 13.801331 16.299221-0.26299 8.327666-5.344728 14.72333-17.526165 14.72333l-46.709835 0 0.26299 34.744315L574.489728 297.032276z"  horiz-adv-x="1024" />

    
    <glyph glyph-name="sina" unicode="&#59056;" d="M783.055 740.309c-30.146 6.856-70.576 5.449-121.289-4.131-0.703 0-1.406-0.352-2.109-1.055l-1.055-2.109-1.055-1.055c-7.559-2.021-13.711-6.328-18.545-12.832-4.834-6.503-7.207-13.535-7.207-21.006 0-10.283 3.427-18.809 10.283-25.664 6.856-6.856 15.117-10.283 24.698-10.283h3.076c0.703 0 2.198 0.352 4.658 1.055 2.373 0.703 5.010 1.23 7.734 1.582 2.724 0.352 5.625 1.055 8.789 2.109 3.076 1.055 5.888 2.021 8.262 3.076 2.373 1.055 7.031 1.582 13.887 1.582 6.856 0 15.293-0.528 25.224-1.582 9.932-1.055 20.918-3.604 32.871-7.646 12.041-4.131 23.994-9.229 35.947-15.381 11.953-6.153 23.994-14.766 35.947-25.664 12.041-10.898 22.5-23.555 31.377-37.969 17.842-40.342 21.27-79.365 10.283-117.070 0-0.703-0.176-1.406-0.528-2.109-0.352-0.703-0.879-2.373-1.582-5.098-0.703-2.724-1.406-5.273-2.109-7.646-0.703-2.373-1.406-5.45-2.109-9.229-0.703-3.779-1.055-7.031-1.055-9.756 0-6.153 1.67-11.25 5.098-15.381 3.428-4.131 7.734-7.031 12.833-8.701 5.185-1.67 11.162-2.549 18.018-2.549 19.161 0 30.498 11.602 33.926 34.893 8.262 26.719 12.832 52.208 13.887 76.465 1.055 24.258-0.703 45.703-5.098 64.161-4.482 18.457-11.162 35.771-20.039 51.856-8.877 16.084-19.161 29.795-30.849 41.045-11.69 11.338-24.697 21.533-39.112 30.849-14.414 9.229-28.301 16.612-41.661 22.060-13.184 5.362-27.070 9.756-41.396 13.184v0zM800.545 450.885c4.131 0 7.911 1.055 11.338 3.076s6.153 4.658 8.261 7.646c2.021 3.076 3.428 6.328 4.131 9.756 0.703 0.703 1.055 1.67 1.055 3.076 8.262 78.047-19.161 122.52-82.266 133.418-18.545 3.428-35.684 3.779-51.416 1.055-4.834 0-8.877-1.231-12.305-3.604-3.428-2.373-6.328-5.449-8.789-9.229-2.373-3.779-3.604-7.734-3.604-11.778 0-6.856 2.373-12.656 7.208-17.403 4.834-4.747 10.635-7.207 17.49-7.207 53.438 12.305 82.266-4.747 86.308-51.328 1.406-11.602 0.703-22.588-2.109-32.872 0-6.856 2.373-12.656 7.207-17.403 4.746-4.747 10.635-7.119 17.49-7.208v0zM435.623 236.344c-4.834-3.428-9.756-4.922-14.942-4.658-5.098 0.352-8.701 2.549-10.81 6.68l-2.109 4.131c-0.703 1.406-1.055 2.724-1.055 4.131v4.131c0 2.021 0.352 3.779 1.055 5.098l2.109 4.131c0.703 1.406 1.67 2.373 3.076 3.076l3.076 4.131c5.45 4.131 10.81 5.801 15.908 5.098s8.701-3.428 10.81-8.174c2.021-2.724 2.901-5.801 2.549-9.229-0.352-3.427-1.406-6.68-3.076-9.756-1.67-3.164-3.867-6.065-6.592-8.789v0zM348.172 162.428c-4.131-0.703-8.086-0.879-11.778-0.528-3.779 0.352-7.207 1.055-10.283 2.109-3.076 1.055-6.153 2.285-9.229 3.604-3.076 1.318-5.625 3.252-7.734 5.625-2.109 2.461-3.955 4.834-5.625 7.207-1.67 2.373-3.076 5.098-4.131 8.174-1.055 3.076-1.583 6.328-1.583 9.756 0 7.559 2.021 14.854 6.153 22.060 4.131 7.208 9.756 13.359 16.963 18.458 7.207 5.185 15.205 8.086 24.17 8.701 6.153 0.703 12.129 0.528 18.018-0.527s10.81-2.724 14.942-5.098c4.131-2.373 7.734-5.098 10.81-8.174 3.076-3.076 5.362-6.68 6.68-10.81 1.318-4.131 2.021-8.526 2.109-13.359 0-7.559-2.197-14.678-6.68-21.533-4.482-6.856-10.459-12.656-18.018-17.403-7.558-4.747-15.82-7.471-24.785-8.262v0zM385.174 356.49c-19.864-2.021-37.705-6.68-53.438-13.887s-28.125-15.381-37.002-24.609c-8.877-9.229-16.435-19.16-22.675-29.795-6.153-10.635-10.459-21.006-12.832-31.289-2.373-10.283-3.955-19.688-4.658-28.213-0.703-8.526-1.055-15.205-1.055-20.039l1.055-8.174v-4.131c0-2.021 0.703-6.153 2.109-12.305s3.252-11.778 5.625-16.963c2.373-5.185 6.328-10.81 11.777-16.963 5.449-6.152 11.953-11.25 19.511-15.381 45.263-21.885 87.364-28.565 126.474-20.039 39.023 8.526 70.576 28.213 94.57 59.063 9.58 11.602 15.908 26.016 18.984 43.154 3.076 17.138 2.373 34.365-2.109 51.856-4.482 17.402-12.129 33.31-23.115 47.724-10.987 14.414-27.246 25.489-48.779 33.398-21.445 7.823-46.318 10.019-74.443 6.592v0zM415.057 72.076c-74.004-3.428-136.934 10.987-188.614 43.154-51.768 32.168-77.607 72.862-77.607 122.168 0 48.604 25.664 90.527 77.080 125.771 51.416 35.244 114.434 54.58 189.141 58.008 74.708 3.427 137.724-8.877 189.141-36.914 51.416-28.037 77.080-66.357 77.080-114.961 0-49.307-26.192-93.604-78.662-132.891-52.383-39.463-114.961-60.82-187.559-64.336v0zM728.563 391.295c-10.283 2.021-16.963 5.098-20.039 9.229s-3.604 7.823-1.582 11.338l3.076 5.097c0.703 0.703 1.406 1.67 2.109 3.076s2.109 4.307 4.131 8.701c2.021 4.482 3.604 8.877 4.658 13.359 1.055 4.482 1.933 9.932 2.549 16.435 0.703 6.504 0.44 12.656-0.528 18.458-0.967 5.8-3.076 12.129-6.153 18.984-3.076 6.856-7.383 13.008-12.832 18.457-9.58 9.58-22.148 15.732-37.529 18.457-15.381 2.724-30.849 2.901-46.231 0.528-15.381-2.373-29.971-5.45-43.682-9.229-13.711-3.779-25.049-7.383-33.925-10.81l-13.359-6.153c-6.856-2.021-12.481-3.427-16.963-4.131-4.482-0.703-7.911-0.528-10.283 0.528-2.373 1.055-4.307 2.021-5.625 3.076-1.318 1.055-1.846 3.428-1.582 7.207 0.352 3.779 0.703 7.031 1.055 9.756 0.352 2.724 1.23 7.031 2.549 12.832 1.406 5.801 2.373 10.459 3.076 13.887 0 8.174-0.527 15.908-1.582 23.115-1.055 7.207-3.252 15.205-6.68 24.083-3.427 8.877-8.349 16.084-14.942 21.533-6.504 5.45-14.766 9.932-24.698 13.359-9.932 3.428-22.763 4.482-38.584 3.076-15.732-1.318-33.575-5.45-53.438-12.305-23.994-8.174-48.34-20.391-73.037-36.387-24.697-16.084-46.055-32.872-64.248-50.273-18.193-17.49-34.805-34.365-49.834-50.801-15.117-16.435-26.719-29.795-34.981-40.078l-11.338-16.435c-22.588-29.443-39.375-58.887-50.362-88.242-10.898-29.356-16.084-51.592-15.381-66.622v-21.533c4.131-32.872 14.238-62.315 30.322-88.33 16.084-26.016 35.244-47.021 57.568-63.106 22.324-16.084 48.516-29.795 78.662-41.045 30.146-11.338 59.151-19.512 86.924-24.609 27.773-5.098 57.041-8.701 87.891-10.81 50.713-4.131 103.359-0.176 157.763 11.778 54.492 11.953 105.205 32.695 152.138 62.138 46.933 29.443 80.068 64.688 99.229 105.732 11.69 23.994 17.666 46.582 18.018 67.763 0.352 21.182-3.252 38.497-10.81 51.856-7.559 13.359-17.315 25.137-29.356 35.42-11.953 10.283-23.291 17.842-33.926 22.588-10.635 4.834-20.039 7.911-28.301 9.229v-0.175z"  horiz-adv-x="1024" />

    
    <glyph glyph-name="faxian" unicode="&#58979;" d="M874.297254 745.949129c-199.902298 199.924824-524.091183 199.924824-724.016006 0-199.914585-199.925848-199.914585-524.102446 0-724.004744 199.924824-199.925848 524.113708-199.925848 724.016006 0C1074.222077 221.846684 1074.222077 546.023282 874.297254 745.949129L874.297254 745.949129zM184.968781 56.609394c-180.785144 180.785144-180.785144 473.888559 0 654.651178 180.785144 180.785144 473.876273 180.785144 654.66244 0 180.761594-180.762618 180.761594-473.86501 0-654.696229C658.846078-124.311928 365.753925-124.153224 184.968781 56.609394L184.968781 56.609394zM184.968781 56.609394M437.677469 463.234158 250.686494 117.599781 589.717769 311.181571l193.583838 339.043562L437.677469 463.234158 437.677469 463.234158zM516.96487 350.394724c-18.560155 0-33.528484 14.979592-33.528484 33.528484 0 18.503841 15.03693 33.553058 33.528484 33.553058 18.492578 0 33.540771-15.048193 33.540771-33.553058C550.50564 365.374316 535.457447 350.394724 516.96487 350.394724L516.96487 350.394724zM516.96487 350.394724"  horiz-adv-x="1025" />

    
    <glyph glyph-name="weixin1" unicode="&#59057;" d="M308.73856 776.76544C23.65696 725.84704-71.37024 403.76064 155.392 256.33536 167.82592 248.34304 167.82592 249.2288 149.17376 193.5744L133.18912 145.91488 190.62016 176.70144 248.0512 207.488 278.54336 200.08704C310.51264 192.09472 351.36768 186.4704 378.60096 186.4704L394.88512 186.4704 389.25824 208.08192C344.55808 372.67712 499.08736 535.79264 700.096 535.79264L727.33184 535.79264 721.70752 555.33056C677.59616 709.56544 491.392 809.32864 308.73856 776.76544zM283.87072 632.59648C314.06592 612.16768 315.84256 568.05888 286.83008 549.11232 239.76192 518.32576 184.69888 572.50048 216.37376 618.68288 230.28736 639.40352 263.74144 646.21312 283.87072 632.59648zM526.62016 632.59648C576.35328 599.1424 539.05408 521.87904 483.39712 543.1936 443.13856 558.58688 438.4 613.94432 475.99616 633.7792 490.79808 641.77152 513.88928 641.18016 526.62016 632.59648zM636.44928 510.62784C495.23968 484.87424 397.25312 377.71008 402.87744 254.55872 410.2784 89.66656 603.58912-24.01024 789.20192 26.90816L811.10784 32.82944 857.29024 7.9616C882.74944-5.952 904.064-16.01792 904.65536-14.83264 905.24928-13.35296 900.21632 4.40832 893.70368 24.83456 878.90176 70.4256 878.6048 67.16928 898.43968 81.37728 1121.64864 241.53344 925.67552 563.02592 636.44928 510.62784zM630.82496 377.71008C643.25632 369.4208 649.76896 348.6976 644.4416 333.59872 633.19296 301.33248 584.93952 298.96448 571.91168 330.048 557.10976 365.86752 597.9648 399.02464 630.82496 377.71008zM828.57472 374.1568C848.11264 355.5072 844.85632 323.82976 822.06208 311.98976 787.13088 294.22848 750.42304 329.75104 768.48128 363.79648 780.32128 385.7024 810.81344 391.02976 828.57472 374.1568zM564.3008 54.34368"  horiz-adv-x="1024" />

    
    <glyph glyph-name="shuaxin" unicode="&#59217;" d="M942.521344 307.49184c-5.579776 0-11.104256-1.470464-15.977472-4.252672l-48.774144-27.867136c11.467776 38.032384 17.277952 77.458432 17.277952 117.29408 0 54.733824-10.7264 107.851776-31.881216 157.876224-20.432896 48.301056-49.673216 91.670528-86.90688 128.903168-37.23264 37.23264-80.602112 66.47296-128.903168 86.905856-50.01728 21.157888-103.134208 31.886336-157.876224 31.886336-48.351232 0-95.669248-8.430592-140.639232-25.058304-16.687104-6.168576-25.244672-24.762368-19.076096-41.449472 4.662272-12.611584 16.825344-21.086208 30.267392-21.086208 3.8144 0 7.576576 0.67584 11.183104 2.010112 37.789696 13.971456 77.579264 21.055488 118.264832 21.055488 188.050432 0 341.039104-152.991744 341.039104-341.044224 0-40.630272-7.097344-80.395264-21.10464-118.296576l-33.746944 68.816896c-5.460992 11.143168-16.570368 18.065408-28.990464 18.065408-4.943872 0-9.715712-1.110016-14.186496-3.301376-15.970304-7.8336-22.592512-27.203584-14.763008-43.179008l60.32896-123.019264c2.148352-8.17152 7.297024-15.060992 14.522368-19.418112 5.03808-3.04128 10.796032-4.64896 16.65024-4.64896 0.32256 0 0.646144 0.013312 0.969728 0.026624l0.110592 0.00512 0.09216-0.004096c0.149504-0.007168 0.299008-0.013312 0.448512-0.013312 5.584896 0 11.1104 1.471488 15.978496 4.253696l131.718144 75.254784c7.487488 4.273152 12.86144 11.206656 15.130624 19.52256 2.26816 8.313856 1.164288 17.012736-3.110912 24.495104C964.83328 301.258752 954.087424 307.49184 942.521344 307.49184zM233.044992 583.00928l16.595968-74.822656c3.252224-14.650368 16.488448-25.283584 31.470592-25.283584 2.366464 0 4.728832 0.259072 7.018496 0.769024 8.413184 1.866752 15.596544 6.897664 20.226048 14.16704 4.629504 7.269376 6.150144 15.904768 4.284416 24.317952L282.97216 655.917056c-0.15872 8.44288-3.540992 16.352256-9.541632 22.2976-4.440064 4.401152-10.015744 7.397376-16.128 8.665088-5.584896 1.455104-11.501568 1.378304-17.076224-0.228352L94.492672 644.517888c-8.27904-2.392064-15.131648-7.866368-19.293184-15.412224-4.161536-7.54688-5.136384-16.26112-2.743296-24.54016 3.968-13.72672 16.708608-23.313408 30.982144-23.313408 3.028992 0 6.048768 0.43008 8.974336 1.277952l53.966848 15.597568c-20.105216-34.270208-35.037184-71.220224-44.413952-109.927424-12.888064-53.210112-14.96576-107.360256-6.176768-160.9472 8.482816-51.750912 26.689536-100.7872 54.11328-145.746944 27.425792-44.957696 62.693376-83.584 104.822784-114.80576 43.638784-32.340992 92.737536-55.271424 145.931264-68.155392 31.68256-7.675904 63.915008-11.567104 95.801344-11.567104 31.484928 0 63.208448 3.792896 94.28992 11.27424 59.947008 14.425088 116.789248 42.891264 164.381696 82.321408 13.697024 11.35104 15.607808 31.731712 4.258816 45.431808-6.150144 7.424-15.21152 11.682816-24.86272 11.682816-7.487488 0-14.79168-2.633728-20.569088-7.417856-30.892032-25.596928-65.335296-45.369344-102.370304-58.769408-36.728832-13.289472-75.20768-20.027392-114.367488-20.027392-27.206656 0.004096-54.583296 3.29728-81.371136 9.788416-182.762496 44.273664-295.43424 228.982784-251.164672 411.748352C194.249728 512.494592 210.507776 549.469184 233.044992 583.00928z"  horiz-adv-x="1024" />

    
    <glyph glyph-name="bangzhu" unicode="&#59076;" d="M507.136-100.004571c-265.563429 0-480.859429 215.405714-480.859429 481.133714 0 265.728 215.296 481.133714 480.859429 481.133714 265.563429 0 480.859429-215.424 480.859429-481.133714C987.995429 115.419429 772.717714-100.004571 507.136-100.004571zM452.571429 70.454857l98.523429 0 0 95.542857L452.571429 165.997714 452.571429 70.454857zM539.154286 691.456c-129.408 3.968-207.030857-54.765714-232.868571-176.146286l86.582857-20.900571c17.92 81.590857 61.677714 121.380571 131.364571 119.424 59.702857-4.004571 92.562286-33.865143 98.523429-89.563429 3.968-37.833143-22.912-76.653714-80.603429-116.443429-53.741714-37.833143-79.634286-84.626286-77.622857-140.324571 0-13.952 0-24.905143 0-32.841143l77.622857 0c0 3.968 0 12.928 0 26.861714-2.011429 41.801143 20.900571 77.622857 68.662857 107.483429 75.611429 47.762286 111.451429 102.491429 107.483429 164.205714C708.297143 632.722286 648.594286 685.476571 539.154286 691.456z"  horiz-adv-x="1024" />

    
    <glyph glyph-name="qianbao" unicode="&#59078;" d="M899.672 65.54c0-11.959-1.838-23.204-5.598-33.59-3.734-10.432-9.033-19.581-15.923-27.481-6.913-7.914-14.927-14.112-24.079-18.486-9.169-4.434-19.244-6.619-30.175-6.619h-625.39c-10.941 0-21.224 2.183-31.001 6.619-9.748 4.439-18.372 10.63-25.879 18.486s-13.325 17.056-17.675 27.481c-4.281 10.432-6.477 21.636-6.477 33.59v473.126c0 24.041 7.612 44.413 22.824 61.166 15.235 16.732 33.743 25.122 55.608 25.122h625.39c21.833 0 40.321-8.389 55.606-25.122 15.235-16.741 22.824-37.106 22.824-61.166v-128.946h-195.535c-21.816 0-40.321-8.218-55.606-24.646-15.235-16.472-22.824-36.708-22.824-60.671 0.564-16.445 3.703-31.001 9.474-43.63 4.571-10.735 12.195-20.553 22.869-29.356 10.63-8.871 25.969-13.297 46.066-13.297h195.535v-172.533h-0.002zM773.185 668.551h-422.097c33.475 17.705 65.109 34.753 94.818 51.226 26.020 13.897 51.748 27.804 77.166 41.693 25.402 13.886 45.216 24.616 59.525 32.251 21.707 12.022 41.043 17.518 58.122 16.599 17.056-0.943 31.453-3.949 43.238-9.017 13.657-6.956 25.402-16.137 35.305-27.481l53.94-105.273zM646.802 324.413c0 11.993 3.99 22.1 12.068 30.303 8.059 8.226 17.976 12.351 29.739 12.351s21.703-4.054 29.728-12.351c8.059-8.218 12.095-18.337 12.095-30.303 0-12.022-3.99-22.283-12.095-30.829-8.032-8.492-17.963-12.756-29.728-12.756s-21.703 4.27-29.739 12.756c-8.032 8.566-12.068 18.843-12.068 30.829v0 0zM646.802 324.413z"  horiz-adv-x="1024" />

    
    <glyph glyph-name="heimingdan1" unicode="&#59115;" d="M511.999488 846.287785C267.07422 846.288808 67.811944 647.026532 67.81706 402.104333 67.812967 157.183158 267.070126-42.074002 511.995395-42.079118c244.920152 0.002047 444.181405 199.264323 444.185498 444.185498C956.181917 647.031649 756.92578 846.288808 511.999488 846.287785zM118.196471 402.104333c0.001023 217.141482 176.658466 393.799948 393.799948 393.800971 97.544617 0 186.904831-35.661198 255.765151-94.612844L212.813409 146.343275C153.861762 215.203596 118.196471 304.562786 118.196471 402.104333zM905.799436 402.101263c0-217.134319-176.661535-393.796878-393.807111-393.792784-97.540524 0-186.899714 35.663244-255.761058 94.615914l554.950208 554.949184C870.135168 589.012234 905.799436 499.649973 905.799436 402.101263z"  horiz-adv-x="1024" />

    
    <glyph glyph-name="renzheng1" unicode="&#59158;" d="M795.293397 831.396604 227.936016 831.396604c-90.162717 0-163.271219-73.078824-163.271219-163.277359l0-567.346124c0-90.162717 73.107478-163.277359 163.271219-163.277359L795.293397-62.504238c90.161694 0 163.273266 73.111572 163.273266 163.277359L958.566663 668.119245C958.566663 758.31778 885.455091 831.396604 795.293397 831.396604zM774.574546 609.560809 491.672071 119.543504c-2.111182-6.010166-5.129057-11.726628-10.133264-16.403362-16.432016-15.394334-42.282994-14.551089-57.683467 1.88502L237.232176 277.136124c-15.39945 16.46374-14.550065 42.282994 1.880927 57.713145 16.438156 15.394334 42.291181 14.551089 57.682444-1.88502l146.062477-134.724723 261.040536 452.151113c11.269188 19.517432 36.249291 26.208129 55.737046 14.939964C779.181692 654.058343 785.875458 629.114058 774.574546 609.560809z"  horiz-adv-x="1025" />

    
    <glyph glyph-name="shipin" unicode="&#58960;" d="M853.27020661 324.20038675L386.21460663 12.829986759999997c-49.19475572-32.69831069-89.55213018-11.19401627-89.55213018 48.01643821L296.66247645 707.15357503c0 59.2104545 40.35737445 80.86203859 89.55213018 47.86914851l467.05559998-311.51768967C902.46496235 410.95401286 902.46496235 357.04598713999997 853.27020661 324.20038675L853.27020661 324.20038675 853.27020661 324.20038675z"  horiz-adv-x="1024" />

    
    <glyph glyph-name="combinedshape" unicode="&#59132;" d="M120.470588 474.52939C120.470588 474.096803 421.47061 474.352941 421.47061 474.352941 421.903197 474.352941 421.647059 775.352963 421.647059 775.352963 421.647059 775.78555 120.647037 775.529412 120.647037 775.529412 120.21445 775.529412 120.470588 474.52939 120.470588 474.52939ZM120.647037 835.764706 421.47061 835.764706C454.835094 835.764706 481.882353 809.388794 481.882353 775.352963L481.882353 474.52939C481.882353 441.164906 455.506441 414.117647 421.47061 414.117647L120.647037 414.117647C87.282553 414.117647 60.235294 440.493559 60.235294 474.52939L60.235294 775.352963C60.235294 808.717447 86.611206 835.764706 120.647037 835.764706ZM120.470588-7.352965C120.470588-7.78555 421.47061-7.529412 421.47061-7.529412 421.903197-7.529412 421.647059 293.470612 421.647059 293.470612 421.647059 293.903197 120.647037 293.647059 120.647037 293.647059 120.21445 293.647059 120.470588-7.352965 120.470588-7.352965ZM120.647037 353.882353 421.47061 353.882353C454.835094 353.882353 481.882353 327.506441 481.882353 293.470612L481.882353-7.352965C481.882353-40.717445 455.506441-67.764706 421.47061-67.764706L120.647037-67.764706C87.282553-67.764706 60.235294-41.388791 60.235294-7.352965L60.235294 293.470612C60.235294 326.835094 86.611206 353.882353 120.647037 353.882353ZM602.352941 474.52939C602.352941 474.096803 903.352965 474.352941 903.352965 474.352941 903.78555 474.352941 903.529412 775.352963 903.529412 775.352963 903.529412 775.78555 602.529388 775.529412 602.529388 775.529412 602.096803 775.529412 602.352941 474.52939 602.352941 474.52939ZM602.529388 835.764706 903.352965 835.764706C936.717445 835.764706 963.764706 809.388794 963.764706 775.352963L963.764706 474.52939C963.764706 441.164906 937.388791 414.117647 903.352965 414.117647L602.529388 414.117647C569.164906 414.117647 542.117647 440.493559 542.117647 474.52939L542.117647 775.352963C542.117647 808.717447 568.493559 835.764706 602.529388 835.764706ZM602.352941-7.352965C602.352941-7.78555 903.352965-7.529412 903.352965-7.529412 903.78555-7.529412 903.529412 293.470612 903.529412 293.470612 903.529412 293.903197 602.529388 293.647059 602.529388 293.647059 602.096803 293.647059 602.352941-7.352965 602.352941-7.352965ZM602.529388 353.882353 903.352965 353.882353C936.717445 353.882353 963.764706 327.506441 963.764706 293.470612L963.764706-7.352965C963.764706-40.717445 937.388791-67.764706 903.352965-67.764706L602.529388-67.764706C569.164906-67.764706 542.117647-41.388791 542.117647-7.352965L542.117647 293.470612C542.117647 326.835094 568.493559 353.882353 602.529388 353.882353Z"  horiz-adv-x="1024" />

    
    <glyph glyph-name="youbian" unicode="&#58967;" d="M778.752 416.907636 383.511273 812.171636c-18.176 18.176-47.639273 18.176-65.815273 0-18.176-18.176-18.176-47.639273 0-65.815273L680.005818 384 317.672727 21.666909c-18.176-18.176-18.176-47.639273 0-65.815273 9.099636-9.099636 20.992-13.637818 32.907636-13.637818s23.808 4.538182 32.907636 13.637818l395.240727 395.240727C796.928 369.268364 796.928 398.731636 778.752 416.907636z"  horiz-adv-x="1024" />

    
    <glyph glyph-name="zuobian" unicode="&#58968;" d="M323.328 384 685.661091 746.356364c18.176 18.176 18.176 47.639273 0 65.815273-18.176 18.176-47.639273 18.176-65.815273 0L224.581818 416.907636c-18.176-18.176-18.176-47.639273 0-65.815273l395.240727-395.240727c9.099636-9.099636 20.992-13.637818 32.907636-13.637818s23.808 4.538182 32.907636 13.637818c18.176 18.176 18.176 47.639273 0 65.815273L323.328 384z"  horiz-adv-x="1024" />

    
    <glyph glyph-name="admin" unicode="&#59178;" d="M582.044306-97.554603l17.113098 99.494753-72.233191 70.442285c-25.072678 24.27672-34.027206 57.109988-24.07773 87.555383 9.949475 30.445394 36.41508 51.538282 70.840264 56.51302l87.356393 12.735328c-3.780801 2.586864-7.163622 5.173727-10.347454 7.95958-10.944423 9.551496-18.705014 19.699961-23.480762 30.047415s-7.561601 21.092888-8.15857 31.440342c-0.596969 10.546444 0 20.893898 1.989895 31.042363 1.392927 8.15857 3.581811 15.123202 6.168675 20.893898 2.586864 5.770696 5.969685 10.546444 10.148465 14.725223 4.17878 3.97979 8.755538 7.95958 14.327244 11.541391 5.571706 3.780801 11.143412 8.15857 17.312087 13.730276 5.372717 4.775748 10.148465 11.342402 14.725223 19.898951 4.17878 8.357559 8.15857 17.113098 11.541391 25.868636 3.382822 9.949475 6.566654 20.694909 9.153517 31.440342 6.765643 1.989895 13.133307 5.571706 19.301982 11.143412 5.372717 4.775748 10.148465 11.342402 14.725223 19.898951 4.17878 8.556549 7.561601 19.699961 9.551496 34.027206 1.392927 10.944423 1.193937 19.898951-0.397979 27.460552-1.591916 7.561601-3.97979 13.531286-6.566654 18.307035-2.586864 5.571706-6.367664 9.750486-11.143412 12.337349 0.596969 27.062573-0.994948 54.324135-5.173727 81.386708-3.183832 23.082783-9.153517 47.558492-17.710066 73.626117s-21.291877 49.946366-38.205985 71.636222c-7.561601 9.551496-17.312087 18.904003-29.649436 28.05752-11.93937 9.153517-26.067625 17.312087-41.588807 24.873688-15.720171 7.561601-32.43529 13.531286-50.344345 18.307035s-37.012048 7.163622-56.51302 7.163622c-15.720171 0-31.838321-1.591916-48.35445-4.17878-16.715119-2.984843-33.032258-7.561601-49.349398-14.327244-16.31714-6.765643-32.43529-16.11815-48.35445-28.05752s-30.246405-27.062573-43.180723-45.369607c-13.531286-19.500972-23.878741-41.588807-31.042363-66.064516-7.163622-24.475709-12.13836-47.558492-14.725223-69.248348-3.581811-25.868636-4.775748-51.737272-4.17878-77.406918-5.571706-6.964633-9.750486-13.929265-12.337349-21.490867-2.785853-6.765643-4.576759-14.725223-5.571706-23.878741-1.193937-9.153517 0-19.699961 3.382822-31.042363 3.581811-11.541391 7.561601-20.29693 12.337349-26.465604 4.775748-6.168675 9.153517-10.944423 13.332297-14.327244 4.775748-3.581811 9.551496-5.770696 14.327244-7.163622 3.382822-10.745433 6.765643-21.291877 10.148465-31.440342 3.382822-8.755538 6.964633-17.312087 11.143412-25.868636 4.17878-8.556549 8.755538-15.123202 14.327244-19.898951 11.740381-9.551496 21.888846-18.705014 31.042363-27.460552 9.153517-8.755538 14.327244-21.291877 15.720171-37.609017 0.596969-10.347454 0.994948-19.898951 0.994948-28.654489 0-8.954528-1.591916-17.312087-4.576759-25.470657-2.984843-8.15857-8.556549-16.31714-16.31714-24.475709-7.760591-8.15857-18.705014-16.715119-33.032258-25.470657-17.511077-11.541391-38.006996-20.29693-61.487757-26.465604-23.480762-6.168675-125.761368-41.389817-147.849203-48.951419-21.888846-7.362612-41.190828-17.511077-57.507967-30.445394-16.11815-12.735328-26.266615-31.838321-30.445394-56.910999C2.387875 14.47649 0.994949 7.511857 4.57676-20.346674c3.581811-27.659541 9.153517-44.17567 16.715119-49.747377 6.168675-4.576759 23.679751-10.148465 52.931209-16.715119 29.251457-6.566654 213.11776-41.190828 426.633501-41.190828 27.858531 0 54.722114 0.596969 80.59075 1.790906C580.253401-116.856585 580.45239-107.305088 582.044306-97.554603zM1004.300038 147.600468l-106.459386 15.521182c-16.31714 2.387874-35.619122 16.31714-42.981733 31.241353l-47.558492 96.509911c-3.581811 7.362612-8.556549 11.143412-13.332297 11.143412-4.775748 0-9.551496-3.780801-13.332297-11.143412l-47.558492-96.509911c-7.362612-14.725223-26.664594-28.853478-42.981733-31.241353l-106.459386-15.521182c-16.31714-2.387874-20.09794-13.730276-8.15857-25.271667l77.008939-75.019044c11.740381-11.541391 19.102993-34.226195 16.31714-50.543335l-18.108045-106.061407c-1.989895-11.740381 2.586864-18.705014 10.745433-18.705014 3.183832 0 6.765643 0.994948 10.745433 3.183832l95.116984 50.145356c7.362612 3.780801 16.914108 5.770696 26.465604 5.770696 9.551496 0 19.301982-1.989895 26.465604-5.770696l95.116984-50.145356c3.97979-2.188885 7.760591-3.183832 10.745433-3.183832 8.15857 0 12.735328 6.964633 10.745433 18.705014l-18.108045 106.061407c-2.785853 16.31714 4.576759 39.001943 16.31714 50.543335l77.008939 75.019044C1024.198988 133.870192 1020.617177 145.212594 1004.300038 147.600468z"  horiz-adv-x="1024" />

    
    <glyph glyph-name="wenji" unicode="&#59107;" d="M180.87214 775.529412C114.246249 775.529412 60.235294 721.715361 60.235294 655.547682L60.235295-8.018269C60.235295-74.282351 114.058098-128 180.87214-128L722.657274-128C789.283159-128 843.294118-74.185951 843.294118-8.018269L843.294118 655.547682C843.294118 721.811762 789.471316 775.529412 722.657274 775.529412L180.87214 775.529412ZM662.588235 474.352941 240.941176 474.352941 240.941176 534.588235 662.588235 534.588235 662.588235 474.352941ZM963.764706 173.176471 903.529412 173.176471 903.529412 715.774975C903.529412 782.043473 850.074606 835.764706 783.082014 835.764706L301.176471 835.764706 301.176471 896 782.709561 896C882.703553 896 963.764706 815.186957 963.764706 715.465666L963.764706 173.176471ZM662.588235 293.647059 240.941176 293.647059 240.941176 353.882353 662.588235 353.882353 662.588235 293.647059Z"  horiz-adv-x="1024" />

    
    <glyph glyph-name="icon_article" unicode="&#58896;" d="M128-32.243c0-35.008 28.672-63.744 64-63.744h634.464c35.264 0 64.032 28.736 64.032 64.192v651.904l-235.712 243.904h-462.688c-35.616 0-64.096-28.512-64.096-63.712v-832.544zM784 576.013h-147.168c-17.76 0-32.128 14.304-32.128 31.872v208.128l238.336-240h-59.040z"  horiz-adv-x="1024" />

    
    <glyph glyph-name="ku" unicode="&#59170;" d="M511.74929-63.463148c-247.296269 0-447.781396 200.484104-447.781396 447.77628 0 247.296269 200.485127 447.781396 447.781396 447.781396 247.292176 0 447.77628-200.485127 447.77628-447.781396C959.526593 137.020956 759.041466-63.463148 511.74929-63.463148L511.74929-63.463148 511.74929-63.463148zM511.750313 789.607878c-223.847208 0-405.294746-181.447539-405.294746-405.294746 0-223.843114 181.447539-405.28963 405.294746-405.28963 223.841068 0 405.28963 181.448562 405.28963 405.28963C917.03892 608.159316 735.591381 789.607878 511.750313 789.607878L511.750313 789.607878 511.750313 789.607878zM556.036959 191.868121 556.036959 191.868121zM642.158409 358.066351 642.158409 358.066351zM484.83736 561.906899c0 7.460925-6.224772 13.517875-13.894452 13.517875-47.097668 0-87.026052 28.328185-106.23044 41.951461-4.415566 3.13541-7.889691 5.568832-10.280134 6.947226-6.613628 3.811816-15.113209 1.705851-19.032472-4.731768-3.919263-6.40385-1.7519-14.703887 4.833075-18.516726 1.862417-1.108241 4.616134-3.052522 8.115841-5.566786 21.563108-15.299451 66.439178-47.142693 122.594129-47.142693C478.611565 548.390048 484.83736 554.446997 484.83736 561.906899L484.83736 561.906899M484.83736 561.906899 484.83736 561.906899zM660.741649 624.337787c-2.363837-1.379417-5.862521-3.813862-10.308787-6.950296-19.168572-13.603833-59.089793-41.945321-106.180298-41.945321-7.667633 0-13.891382-6.057973-13.891382-13.520945 0-7.465019 6.223748-13.522991 13.891382-13.522991 56.145741 0 101.012601 31.831986 122.573663 47.136553 3.499707 2.490727 6.251378 4.491291 8.139378 5.570879 6.584975 3.812839 8.751315 12.116969 4.833075 18.526959C675.853835 626.068198 667.323555 628.177232 660.741649 624.337787L660.741649 624.337787M660.741649 624.337787 660.741649 624.337787zM606.750991 276.334885l-87.233783 41.61991c-3.578502 1.706875-7.673773 1.598404-11.171434-0.274246l-77.151148-41.624003c-6.40385-3.442402-8.942673-11.740392-5.701862-18.548448 3.212158-6.78145 11.016915-9.428743 17.420765-6.065136l71.626317 38.645159 81.557504-38.920428c1.713015-0.824785 3.552919-1.209548 5.315052-1.209548 4.925173 0 9.671267 3.000334 11.822257 8.128121C616.21555 265.031445 613.284801 273.189242 606.750991 276.334885L606.750991 276.334885M606.750991 276.334885 606.750991 276.334885zM353.068268 224.191294 353.068268 224.191294zM384.898207 514.346697 169.665191 514.346697c-9.370415 0-16.96744-9.080819-16.96744-20.280906 0-11.202133 7.597025-20.280906 16.96744-20.280906l42.09984 0c17.501606-40.8555 3.892657-83.650165 3.892657-83.650165-29.556153-77.856205 0-128.319527 0-128.319527 17.302061-41.811268 4.326539-91.554182 4.326539-91.554182 66.322521 12.975523 115.344005-13.697977 115.344005-13.697977 33.162284 39.649022 4.332678 100.92562 4.332678 100.92562-19.457144 49.022507 0 103.08889 0 103.08889 17.21508 42.12133 14.503319 86.230943 10.108219 113.206318l35.130102 0c9.371438 0 16.96744 9.080819 16.96744 20.280906C401.8636 505.266901 394.267599 514.346697 384.898207 514.346697L384.898207 514.346697zM327.663668 371.147274l-1.343601-3.680832c-9.075703-25.232684-20.360723-56.630788 4.723581-121.516588 15.338337-39.60195 5.892197-62.151525-0.548492-71.748091 0 0.023536-0.024559 0.023536-0.047072 0.023536-1.118474 0.448208-2.214435 0.847298-3.308349 1.2689-14.842033 5.593392-29.160133 9.121751-42.709731 10.965749-1.169639 0.146333-2.337231 0.323365-3.505847 0.469698-6.365988 0.720408-12.530384 1.118474-18.497283 1.146103-1.340531 0-2.63706-0.074701-3.975545-0.125867-4.946662-0.122797-9.748015-0.471744-14.322194-1.044796-1.215688-0.148379-2.461051-0.248663-3.654226-0.420579-0.969071-0.149403-1.864464-0.397043-2.808976-0.548492 4.326539 20.584827 5.752004 50.085722-6.290263 71.374584-18.780739 33.199123-17.898649 89.449241-0.248663 140.437519 6.726192 19.493983 0.288572 52.910047-5.763261 76.03779l110.420879 0C340.101955 453.815065 343.782787 416.555463 327.663668 371.147274L327.663668 371.147274zM854.608032 514.346697 639.373992 514.346697c-9.370415 0-16.966417-9.080819-16.966417-20.280906 0-11.202133 7.596002-20.280906 16.966417-20.280906l37.71702 0c-4.3951-26.975375-7.107885-71.084988 10.108219-113.206318 0 0 19.456121-54.06843 0-103.08889 0 0-28.829606-61.276598 4.332678-100.92562 0 0 49.02046 26.673499 115.344005 13.697977 0 0-12.975523 49.741891 4.326539 91.554182 0 0 29.556153 50.463322 0 128.319527 0 0-13.608949 42.794665 3.892657 83.650165l39.514969 0c9.370415 0 16.966417 9.080819 16.966417 20.280906C871.573425 505.266901 863.978447 514.346697 854.608032 514.346697L854.608032 514.346697zM795.72904 397.749142c17.652032-50.989301 18.532075-107.23942-0.248663-140.438543-12.042267-21.286816-10.615779-50.788733-6.290263-71.374584-0.945535 0.149403-1.839905 0.398066-2.808976 0.548492-1.193175 0.173962-2.438539 0.272199-3.654226 0.420579-4.573155 0.572028-9.375531 0.923022-14.322194 1.044796-1.339508 0.051165-2.636037 0.125867-3.975545 0.125867-5.966898-0.026606-12.130272-0.425695-18.497283-1.146103-1.168616-0.146333-2.335185-0.323365-3.505847-0.469698-13.548574-1.842974-27.867698-5.371334-42.709731-10.965749-1.093914-0.420579-2.189875-0.818645-3.308349-1.2689-0.022513 0-0.047072 0-0.047072-0.023536-6.439666 9.594519-15.884782 32.146141-0.548492 71.748091 25.084305 64.885799 13.798261 96.283904 4.723581 121.516588l-1.343601 3.681856c-16.118096 45.406143-12.438287 82.665745-8.121981 102.635565l110.420879 0C795.440467 450.658166 789.001825 417.243125 795.72904 397.749142L795.72904 397.749142z"  horiz-adv-x="1024" />

    
    <glyph glyph-name="help" unicode="&#58919;" d="M637.006 224.461c-12.251 0-23.871 7.136-29.017 19.071-6.915 16.009 0.474 34.606 16.451 41.49 49.541 21.439 101.167 73.223 134.731 135.236 28.86 53.204 34.89 116.701 34.89 160.622 0.032 134.226-131.794 251.969-282.060 251.969-150.297 0-282.123-116.828-282.123-250.011 0-42.911 4.768-104.229 27.565-152.571 34.291-72.875 95.009-122.164 136.562-142.246 15.724-7.578 22.292-26.46 14.682-42.184-7.641-15.661-26.555-22.197-42.153-14.682-67.981 32.87-131.668 98.83-166.211 172.179-27.754 58.919-33.564 130.121-33.564 179.473 0 166.843 161.317 313.193 345.242 313.193 183.893 0 345.21-147.235 345.21-315.088 0-51.246-7.357-125.921-42.532-190.713-39.974-73.823-103.282-136.341-165.201-163.117-4.042-1.768-8.304-2.621-12.472-2.621zM384.374-17.625c-17.429 0-31.575 14.114-31.575 31.575v245.686c0 17.461 14.146 31.575 31.575 31.575s31.575-14.114 31.575-31.575v-245.686c0-17.429-14.114-31.575-31.575-31.575zM636.974-21.256c-17.461 0-31.575 14.114-31.575 31.575v245.717c0 17.461 14.114 31.575 31.575 31.575s31.575-14.114 31.575-31.575v-245.717c-0-17.461-14.114-31.575-31.575-31.575zM510.421-127.98c-86.895 0-157.591 66.466-157.591 148.182 0 17.461 14.146 31.575 31.575 31.575s31.575-14.114 31.575-31.575c0-46.889 42.374-85.032 94.441-85.032 52.099 0 94.473 38.143 94.473 85.032 0 17.461 14.114 31.575 31.575 31.575s31.575-14.114 31.575-31.575c-0.032-81.685-70.728-148.182-157.623-148.182zM618.566 11.898h-225.951c-17.429 0-31.575 14.114-31.575 31.575s14.146 31.575 31.575 31.575h225.951c17.461 0 31.575-14.114 31.575-31.575s-14.114-31.575-31.575-31.575zM636.69 136.904h-252.569c-17.429 0-31.575 14.114-31.575 31.575s14.146 31.575 31.575 31.575h252.569c17.461 0 31.575-14.114 31.575-31.575s-14.114-31.575-31.575-31.575zM513.831 451.234l-16.293 3.6 17.114 60.782-8.557-30.375-13.577 27.281c-9.978-5.999-12.062-15.093-12.156-15.472 1.673 9.788 4.357 25.892 19.198 36.311 6.031 4.231 16.040 8.557 29.712 7.168 42.911 0.979 77.517 33.659 77.517 73.696 0 40.637-35.68 73.696-79.538 73.696-43.1 0-79.506-35.175-79.506-76.791h-63.15c0 75.843 65.329 139.941 142.656 139.941 78.685 0 142.688-61.382 142.688-136.846 0-71.233-57.025-129.963-129.584-136.31-2.4-6.947-6.536-13.988-14.619-19.134l-11.904-7.546zM480.457 512.742h63.15v-111.365h-63.15v111.365zM479.478 330.364c-0-17.979 14.575-32.554 32.554-32.554s32.554 14.575 32.554 32.554c0 17.979-14.575 32.554-32.554 32.554-17.979 0-32.554-14.575-32.554-32.554z"  horiz-adv-x="1024" />

    
    <glyph glyph-name="dunpai" unicode="&#59041;" d="M737.28 814.08C657.92 814.08 491.52 896 491.52 896s-122.88-81.92-204.8-81.92c-81.888 0-163.84 40.96-163.84 40.96l0-532.48C122.88 73.728 450.56-128 512-128s389.12 201.728 389.12 450.56L901.12 855.04C901.12 855.04 819.2 814.08 737.28 814.08zM758.176 485.376l-260.672-260.672c-15.936-15.904-41.984-15.904-57.92 0l-173.792 173.792c-15.936 15.936-15.936 41.984 0 57.92 15.936 15.936 41.984 15.936 57.92 0l144.8-144.8 231.712 231.712c15.936 15.936 41.984 15.936 57.92 0C774.112 527.36 774.112 501.312 758.176 485.376z"  horiz-adv-x="1024" />

    
    <glyph glyph-name="icon20" unicode="&#59156;" d="M512-96.711111c-22.755556 0-45.511111 31.288889-45.511111 45.511111L466.488889 338.488889 76.8 338.488889c-14.222222 0-45.511111 19.911111-45.511111 45.511111s31.288889 45.511111 45.511111 45.511111l392.533333 0L469.333333 819.2c0 14.222222 19.911111 45.511111 45.511111 45.511111 22.755556 0 45.511111-31.288889 45.511111-45.511111l0-392.533333 392.533333 0c14.222222 0 45.511111-19.911111 45.511111-45.511111s-31.288889-45.511111-45.511111-45.511111L557.511111 335.644444l0-392.533333C557.511111-65.422222 534.755556-96.711111 512-96.711111z"  horiz-adv-x="1024" />

    
    <glyph glyph-name="remen1" unicode="&#59090;" d="M743.413534 469.129866c-46.933939 0-85.127819 38.193881-85.127819 85.127819s38.193881 85.127819 85.127819 85.127819c46.933939 0 85.127819-38.193881 85.127819-85.127819S790.348496 469.129866 743.413534 469.129866zM743.413534 615.063563c-33.537837 0-60.805878-27.279297-60.805878-60.805878s27.26804-60.805878 60.805878-60.805878 60.805878 27.279297 60.805878 60.805878S776.952394 615.063563 743.413534 615.063563zM912.965138 507.703393c0-20.186761-12.987802-51.515281-27.240411-65.817008l-369.017518-369.065614c-4.621251-4.573155-10.70276-7.052626-17.220197-7.052626-6.615675 0-12.69616 2.529613-17.268292 7.052626L283.455817 271.630746c-4.572132 4.52506-7.004531 10.604522-7.004531 17.122983 0 6.51846 2.480494 12.647041 7.004531 17.220197l369.017518 369.017518c14.252609 14.252609 45.677319 27.28953 65.865103 27.28953l170.255639 0c13.377682 0 24.321942-10.896164 24.321942-24.321942L912.916019 507.703393 912.965138 507.703393 912.965138 507.703393 912.965138 507.703393zM888.643196 750.92588 718.387557 750.92588c-33.419134 0-76.56684-17.8526-100.208283-41.494043L249.161756 340.366224c-13.765515-13.765515-21.306258-32.05609-21.306258-51.612495 0-19.554358 7.540743-37.844933 21.306258-51.66059l126.573767-126.524648-53.314253-30.743188c-5.54632-3.210112-12.063757-4.036943-18.435884-2.38328-6.275937 1.653663-11.528568 5.691629-14.787798 11.286044L114.270557 391.734148c-6.664793 11.625782-2.675946 26.510794 8.902764 33.223682l388.474662 224.299509c11.625782 6.713912 15.614629 21.549805 8.949836 33.223682-6.760984 11.626805-21.647019 15.615653-33.272801 8.902764L98.850355 467.0853c-16.830317-9.729595-28.894074-25.441439-33.905204-44.315298-5.107321-18.87386-2.480494-38.526455 7.199982-55.357795l174.926008-303.007105c9.776667-16.830317 25.440415-28.895097 44.363394-33.9533 6.274914-1.701758 12.745279-2.529613 19.020192-2.529613 12.69616 0 25.051559 3.307326 36.288484 9.777691l64.600297 37.21253 36.58115-36.532031c13.765515-13.766538 32.007995-21.306258 51.563376-21.306258 19.603477 0 37.844933 7.587815 51.611471 21.306258l369.017518 368.968399c23.689538 23.737634 41.494043 66.789149 41.494043 100.304474L961.611068 677.909913c0 40.229237-32.689517 72.966848-72.966848 72.966848L888.644219 750.92588 888.643196 750.92588 888.643196 750.92588z"  horiz-adv-x="1024" />

    
    <glyph glyph-name="xialaxuan" unicode="&#59129;" d="M512 892.229117c-280.353153 0-507.624343-227.27119-507.624343-507.624343s227.27119-507.624343 507.624343-507.624343 507.624343 227.27119 507.624343 507.624343S792.353153 892.229117 512 892.229117zM512 194.245262 289.913902 511.511115l444.171172 0L512 194.245262z"  horiz-adv-x="1024" />

    
    <glyph glyph-name="wendangxiugai" unicode="&#59171;" d="M397.459421 58.444601H190.057869c-9.394495 0-16.62103 7.949188-16.621031 16.621031V737.016231c0 9.394495 7.949188 16.62103 16.621031 16.621031h581.736062c9.394495 0 16.62103-7.949188 16.62103-16.621031v-278.944248c0-13.730416 11.562456-25.292872 25.292872-25.292872s25.292872 11.562456 25.292873 25.292872V737.016231c0 36.855328-30.351447 67.206775-67.206775 67.206775H190.057869c-36.855328 0-67.206775-30.351447-67.206775-67.206775v-661.950599c0-36.855328 30.351447-67.206775 67.206775-67.206775H397.459421c13.730416 0 25.292872 11.562456 25.292873 25.292872s-11.562456 25.292872-25.292873 25.292872zM880.191955 366.294989c-33.242061 33.242061-87.441073 33.242061-120.683134 0l-247.870148-247.870148c-3.613267-3.613267-5.781228-7.226535-6.503881-12.285109l-24.570219-107.675371c-2.16796-8.671842 0.722653-17.343684 6.503881-23.124911 5.058574-5.058574 11.562456-7.949188 18.066338-7.949189 1.445307 0 3.613267 0 5.058574 0.722654l109.843331 22.402258c5.058574 0.722653 9.394495 3.613267 13.007763 7.226535L880.191955 245.611856c15.898377 15.898377 25.292872 37.577982 25.292872 60.702893s-9.394495 44.081863-25.292872 59.98024z m-35.410021-85.273112l-242.088921-242.08892-64.31616-13.007763 14.453069 62.1482L794.918843 330.884968c13.730416 13.730416 36.132675 13.730416 49.140437 0 6.503881-6.503881 10.117149-15.175723 10.117149-24.570219s-2.890614-18.788991-9.394495-25.292872zM698.805928 687.875794H255.096683c-13.730416 0-25.292872-11.562456-25.292872-25.292872s11.562456-25.292872 25.292872-25.292873h444.431899c13.730416 0 25.292872 11.562456 25.292872 25.292873s-11.562456 25.292872-26.015526 25.292872zM724.0988 539.731828c0 13.730416-11.562456 25.292872-25.292872 25.292872H255.096683c-13.730416 0-25.292872-11.562456-25.292872-25.292872s11.562456-25.292872 25.292872-25.292872h444.431899c13.730416 0 24.570219 11.562456 24.570218 25.292872zM257.987297 410.376853m-27.460833 0a27.460833 27.460833 0 1 1 54.921666 0 27.460833 27.460833 0 1 1-54.921666 0ZM354.100212 410.376853m-27.460833 0a27.460833 27.460833 0 1 1 54.921665 0 27.460833 27.460833 0 1 1-54.921665 0ZM450.213126 410.376853m-27.460832 0a27.460833 27.460833 0 1 1 54.921665 0 27.460833 27.460833 0 1 1-54.921665 0Z"  horiz-adv-x="1024" />

    
    <glyph glyph-name="quanpingshouqi" unicode="&#59181;" d="M790.640462 439.047399c9.174566 0 17.757225 3.995376 24.268209 11.246243l0.44393 0.44393 0.443931 0.443931c7.250867 6.510983 11.246243 15.093642 11.246243 24.268208l0.44393 224.184971-0.147977 13.317919 0.147977-7.694798v25.895954c0 10.210405-3.847399 19.532948-10.802312 26.487861-6.363006 6.363006-14.501734 9.766474-23.23237 9.766474-14.501734 0-27.227746-9.618497-31.963006-24.120231l-0.44393-191.334104-297.433526 289.738729c-12.873988 12.873988-33.738728 12.873988-46.760694-0.147977-12.873988-12.873988-13.021965-33.886705-0.147977-46.760694l297.433526-289.738728-193.849711-0.591908c-16.57341-1.923699-29.003468-15.981503-29.003468-32.850867 0-8.878613 3.403468-17.165318 9.766474-23.528324 6.215029-6.215029 14.501734-9.618497 23.23237-9.618497l266.358381 0.591908m0 0zM1052.559538 294.030058l-0.591908-266.210405c0-8.730636 3.403468-17.017341 9.618497-23.23237 6.215029-6.215029 14.649711-9.766474 23.528324-9.766474 16.869364 0 30.927168 12.430058 32.850867 29.003468l0.591907 193.849711 294.91792-292.254335c12.873988-12.873988 33.886705-12.873988 46.760693 0.147977 12.873988 12.873988 13.021965 33.886705 0.147977 46.760694L1165.317919 264.434682l195.625434 0.443931c14.501734 4.73526 24.120231 17.461272 24.120231 31.963005 0 8.730636-3.551445 16.869364-9.766474 23.23237-6.954913 6.954913-16.425434 10.802312-26.487861 10.802313h-30.187284l7.694798-0.147977-13.317919 0.147977-223.889017-0.443931c-9.174566 0-17.757225-3.995376-24.268209-11.246243l-0.44393-0.44393-0.443931-0.443931c-7.398844-6.510983-11.39422-15.093642-11.394219-24.268208m0 0z"  horiz-adv-x="1879" />

    
    <glyph glyph-name="suo2" unicode="&#59058;" d="M856.881609 478.736164h-76.640358v140.507322c0 146.894019-121.347233 249.081162-268.241251 249.081162s-268.241251-102.187143-268.241251-249.081162v-134.120626h-76.640358c-38.320179 0-63.866965-31.933482-63.866965-63.866964v-485.388931c0-38.320179 31.933482-63.866965 63.866965-63.866965h689.763218c38.320179 0 63.866965 31.933482 63.866965 63.866965v479.002234c0 38.320179-25.546786 63.866965-63.866965 63.866965z m-306.56143-319.334823v-108.57384c0-6.386696-6.386696-6.386696-6.386697-6.386697h-57.480268c-6.386696 0-6.386696 6.386696-6.386696 6.386697v108.57384c-31.933482 12.773393-51.093572 38.320179-51.093572 70.253661 0 44.706875 38.320179 83.027054 83.027054 83.027054 44.706875 0 83.027054-38.320179 83.027054-83.027054 0-31.933482-19.160089-57.480268-44.706875-70.253661z m127.733929 319.334823H345.945892v146.894018c0 76.640358 76.640358 140.507322 166.054108 140.507323s166.054108-63.866965 166.054108-140.507323v-146.894018z m0 0z"  horiz-adv-x="1024" />

    
    <glyph glyph-name="774bianjiqi_yulan" unicode="&#58969;" d="M633.01097-81.863761v0.465H139.658091c-24.667994 0-47.939988 9.773998-65.625984 27.459993-17.685996 17.686996-27.459993 40.95799-27.459993 65.625984V756.372034c0 24.666994 9.773998 47.938988 27.459993 65.624984s40.95799 27.459993 65.625984 27.459993h605.055852c24.667994 0 47.939988-9.773998 65.624984-27.459993 17.686996-17.685996 27.459993-40.95799 27.459993-65.624984v-209.442949c0-12.799997 10.472997-23.270994 23.271995-23.270994 12.799997 0 23.270994 10.471997 23.270994 23.269994V756.373034C884.341909 833.167015 821.509924 896 744.713943 896H139.658091C62.86211 896 0.029125 833.167015 0.029125 756.372034v-744.684818c0-76.795981 62.832985-139.628966 139.628966-139.628966H633.00997v0.466c10.704997 2.093999 18.616995 11.634997 18.616996 22.805994s-7.911998 20.710995-18.616996 22.805995zM721.442949 703.778047c0 12.799997-10.471997 23.271994-23.271994 23.271994h-511.969875c-12.799997 0-23.271994-10.472997-23.271995-23.271994 0-12.799997 10.471997-23.270994 23.270995-23.270994h511.970875c12.799997 0 23.271994 10.471997 23.271994 23.270994zM186.20008 38.681209H325.830045c12.798997 0 23.270994 10.472997 23.270995 23.271995s-10.471997 23.270994-23.270995 23.270994H186.20008c-12.798997 0-23.270994-10.471997-23.270995-23.270994S173.400083 38.680209 186.20008 38.680209zM186.20008 359.594131h93.085977c12.799997 0 23.270994 10.471997 23.270994 23.271994s-10.471997 23.269994-23.270994 23.269995H186.20008c-12.798997 0-23.270994-10.470997-23.270995-23.269995s10.471997-23.271994 23.270995-23.271994zM1017.221877-88.14776L845.013919 84.061198c39.09599 46.541989 62.599985 106.582974 62.599984 171.974958 0 147.773964-119.847971 267.621935-267.620934 267.621935S372.372034 403.81012 372.372034 256.036156s119.846971-267.619935 267.619935-267.619934c65.625984 0 125.433969 23.502994 171.975958 62.599984l172.208958-172.209958c9.075998-9.074998 23.969994-9.074998 32.811992 0s9.309998 23.969994 0.233 33.045992z m-377.229908 123.10597c-121.94097 0-221.077946 99.135976-221.077946 221.077946s99.136976 221.078946 221.078946 221.078946S861.069915 377.979126 861.069915 256.036156s-99.135976-221.077946-221.077946-221.077946z"  horiz-adv-x="1024" />

    
    <glyph glyph-name="duoxuan" unicode="&#58906;" d="M406.427 624.066h504.278c26.871 0 48.855 21.606 48.855 48.016 0 26.407-21.984 48.013-48.855 48.013H406.427c-26.871 0-48.855-21.606-48.855-48.013 0-26.411 21.984-48.016 48.855-48.016zM145.866 752.101c-44.787 0-81.427-36.007-81.427-80.019 0-44.015 36.64-80.025 81.427-80.025 44.78 0 81.424 36.01 81.424 80.025 0 44.012-36.643 80.019-81.424 80.019z m764.84-320.088H406.427c-26.871 0-48.855-21.606-48.855-48.013 0-26.404 21.984-48.013 48.855-48.013h504.278c26.871 0 48.855 21.609 48.855 48.013 0.001 26.407-21.983 48.013-48.854 48.013z m-764.84 32.012c-44.787 0-81.427-36.013-81.427-80.025s36.64-80.019 81.427-80.019c44.78 0 81.424 36.007 81.424 80.019s-36.643 80.025-81.424 80.025z m764.84-320.087H406.427c-26.871 0-48.855-21.609-48.855-48.013 0-26.41 21.984-48.013 48.855-48.013h504.278c26.871 0 48.855 21.603 48.855 48.013 0.001 26.404-21.983 48.013-48.854 48.013z m-764.84 32.005c-44.787 0-81.427-36.007-81.427-80.019s36.64-80.025 81.427-80.025c44.78 0 81.424 36.013 81.424 80.025s-36.643 80.019-81.424 80.019z"  horiz-adv-x="1024" />

    
    <glyph glyph-name="suo1" unicode="&#59334;" d="M782.336 490.496c-16.896 0-15.872-2.048-15.872 16.384 0 34.304 0.512 30.208 0 64.512-1.536 68.608-27.136 127.488-75.776 175.104-80.384 78.848-197.12 95.744-294.912 41.472-83.968-46.592-128.512-120.832-132.096-219.136-1.024-31.744 0-26.112 0-57.856 0-23.04 2.56-19.456-19.456-19.968-34.816-0.512-59.392-25.088-59.392-60.416 0-139.776 0.512-279.552-0.512-419.84 0-36.352 30.208-62.464 60.928-61.952 88.576 1.024 177.664 0.512 266.24 0.512H779.264c36.864 0 60.416 24.064 60.416 61.44v415.232c0 5.632 0 11.776-1.024 17.408-5.12 27.648-28.16 47.104-56.32 47.104z m-469.504 71.68c0.512 86.528 51.2 162.304 129.024 193.024 122.368 48.128 259.072-34.304 274.432-166.912 5.12-43.008 1.536-48.128 2.048-91.648 0-7.168-5.12-6.144-9.216-6.144h-383.488c-12.8 0-12.8 0-12.8 12.8v58.88zM786.944 22.528c0-10.24-8.192-18.944-18.432-18.944H255.488c-10.24 0-18.432 8.704-18.432 18.944v391.68c0 10.24 8.192 18.944 18.432 18.944H768.512c10.24 0 18.432-8.704 18.432-18.944v-391.68zM523.776 370.688c-33.792 3.072-65.024-15.872-76.8-46.592-12.288-31.744-2.56-68.608 23.552-87.552 9.216-6.656 12.8-14.848 12.8-25.088v-55.808c1.024-17.92-2.048-38.912 1.536-59.904 2.56-14.336 14.848-24.576 29.696-25.088 14.336-0.512 25.6 8.704 29.184 23.552 1.024 4.608 1.536 9.216 1.536 13.312v98.304c0 12.288 3.584 22.016 14.336 29.696 24.576 17.92 33.792 44.032 28.16 74.752-5.632 32.256-33.28 57.856-64 60.416z"  horiz-adv-x="1024" />

    
    <glyph glyph-name="icon-feixingmanyou" unicode="&#58917;" d="M64.52224 309.504l895.86176 461.0816-236.65152-770.99008-263.68512 120.37632-111.77984-120.37632v163.36896l500.33664 504.43776-597.7856-452.84864-186.29632 94.9504z"  horiz-adv-x="1024" />

    
    <glyph glyph-name="sousuo" unicode="&#59100;" d="M958.94784 51.851162L755.377254 260.228096c-1.993523 2.046566-4.538573 2.931814-6.753075 4.64681 42.663424 60.091597 67.949261 133.349069 67.949261 212.693196 0 203.34121-164.892058 368.282829-368.297882 368.282829-203.402752 0-368.297882-164.941619-368.297881-368.282829 0-203.397427 164.89513-368.281805 368.297881-368.281804 84.109005 0 161.353318 28.438733 223.326311 75.91086 1.106227-1.325158 1.547264-2.931814 2.710835-4.147507l203.568538-208.431104c11.06647-11.344384 25.788416-17.042125 40.506163-17.042125 14.274662 0 28.607693 5.36617 39.616921 16.15698C980.363366-6.467072 980.804506 29.441843 958.94784 51.851162zM136.640512 477.568c0 171.800781 139.829248 311.623373 311.63607 311.623373 171.86519 0 311.63607-139.823514 311.636071-311.623373 0-171.859149-139.770982-311.624397-311.636071-311.624397C276.46976 165.943706 136.640512 305.708851 136.640512 477.568z"  horiz-adv-x="1024" />

    
    <glyph glyph-name="zhongyaogaojing" unicode="&#59000;" d="M435.205 640.01c-6.003-2.861-11.799-6.004-17.375-9.525-7.532-4.659-9.794-14.466-5.16-21.949a15.921 15.921 0 0 1 13.524-7.52c2.897 0 5.796 0.758 8.413 2.36a144.277 144.277 0 0 0 14.355 7.85c7.948 3.79 11.286 13.303 7.483 21.252-3.791 7.948-13.28 11.409-21.24 7.532zM876.832 130.556c-14.99 5.918-78.966 36.462-78.966 127.729V500.028c0 117.557-95.865 226.016-215.183 258.371v1.993c0 39.557-32.195 71.74-71.728 71.74-0.123 0-0.269-0.012-0.392-0.012-0.147 0-0.256 0.012-0.416 0.012-39.532 0-71.728-32.183-71.728-71.74v-1.993c-119.3-32.354-215.189-140.813-215.189-258.371v-241.743c0-91.268-63.981-121.812-78.985-127.729-10.913-5.551-18.415-16.825-18.415-29.934 0-18.561 15.028-33.675 33.632-33.675h702.182c18.623 0 33.639 15.114 33.639 33.675-0.011 13.108-7.518 24.383-18.451 29.934z m-346.508 0.172H245.511c23.526 30.422 41.47 72.203 41.47 127.57V463.405c0.263-0.073 0.525-0.122 0.789-0.207v36.817c0 105.048 108.221 204.361 222.795 204.606 114.536-0.245 222.764-99.558 222.764-204.606v-36.817c0.269 0.085 0.538 0.134 0.795 0.207v-205.12c0-55.367 17.938-97.136 41.464-127.558H530.324v0.001zM392.249 589.828c-7.104 5.283-17.07 3.815-22.364-3.167-22.97-30.582-35.075-66.922-35.075-105.22v-159.425c0-8.791 7.11-15.944 15.939-15.944 8.816 0 15.92 7.153 15.92 15.944V481.441c0 31.352 9.953 61.09 28.686 86.059 5.332 7.08 3.901 17.058-3.106 22.328zM615.221 51.051H569.6c-2.006-0.183-3.79-0.904-5.308-2.03-0.194 0.368-0.439 0.661-0.647 1.003-3.045-1.124-5.588-3.252-6.407-6.529-3.583-22.181-22.39-39.397-45.413-40.18-23.025 0.782-41.832 17.999-45.402 40.18-0.807 3.277-3.351 5.405-6.432 6.529-0.196-0.342-0.416-0.635-0.612-1.003a10.465 10.465 0 0 1-5.331 2.03h-45.609c-4.769-0.293-8.241-3.875-8.975-8.462 4.414-57.506 52.09-103.079 110.685-103.079 0.563 0 1.125 0.049 1.688 0.049 0.562 0 1.113-0.049 1.675-0.049 58.607 0 106.296 45.586 110.697 103.079-0.734 4.598-4.231 8.169-8.988 8.462z"  horiz-adv-x="1024" />

    
    <glyph glyph-name="huo" unicode="&#59001;" d="M804.979216 301.523567c-99.940177 217.937614-35.469839 287.845801-34.809807 288.545742 1.110287 1.153266 1.292436 2.936889 0.420579 4.335748-0.939395 1.327228-2.645247 1.852184-4.131087 1.258667-1.456165-0.594541-140.541897-58.962903-123.034151-188.282201-38.176484 34.516118-216.367863 211.677027-107.370403 419.99761 0.691755 1.258667 0.48914 2.869351-0.524956 3.916193-0.968048 1.103124-2.53166 1.436722-3.815909 0.858554-2.358721-0.979304-57.93448-24.865317-102.262058-85.34783-40.886199-55.67195-78.886675-154.150846-27.682479-306.550815 18.618033-71.693856-16.499789-129.813554-35.329646-154.503886 4.627391 17.032932 10.455119 45.814442 9.486048 78.932724-1.494027 48.434106-18.85851 115.297956-92.957135 158.52241-1.139963 0.665149-2.636037 0.627287-3.709485-0.211824-1.149173-0.839111-1.636267-2.200108-1.321088-3.564175 0.26913-1.294482 27.998681-128.626519-20.638039-187.549513-41.990347-50.810223-83.119069-139.28937-60.84988-221.26029 18.648732-68.506257 76.9383-120.822786 173.259042-155.408489 24.701588-7.658424 48.312332-13.465686 74.43427-18.393929 1.705851-0.358157 3.372817 0.700965 3.89061 2.340301 0.527003 1.717108-0.315178 3.532453-1.877767 4.267187-49.462528 21.572318-100.488669 66.543555-62.551638 157.892053 36.086893 78.750575 29.627784 119.355365 22.403243 136.731104 18.655895-10.587126 55.711859-38.048571 46.473451-86.334297-0.239454-1.406023 0.38374-2.873444 1.63729-3.604084 1.246387-0.737804 2.7793-0.62831 3.89061 0.277316 1.179872 0.909719 112.610754 93.230358 61.962214 206.328205 24.977881-14.475689 91.14486-65.184605 52.105728-181.52531-12.990872-50.011021 22.411429-86.003769 23.89727-87.499843 1.187035-1.157359 2.961448-1.331321 4.312212-0.425695 1.322112 0.842181 1.877767 2.587941 1.284249 4.13211-1.149173 3.111874-27.547403 74.694189 29.735232 114.248044-3.018753-18.358113-7.819083-63.862493 12.67774-88.647993 18.407232-22.321378 36.19127-58.895365 30.776957-94.637404-3.822049-25.148773-18.580171-46.367027-44.047192-62.946634-1.459235-1.013073-1.978051-2.798742-1.25662-4.408403 0.735757-1.573845 2.537799-2.307555 4.206812-1.783623 62.876026 20.952194 145.340179 62.530149 181.285856 141.878334C841.488735 151.568277 838.116941 221.686241 804.979216 301.523567z"  horiz-adv-x="1024" />

    
    <glyph glyph-name="jiaguanzhu" unicode="&#59103;" d="M752.1 202.1c-8.3 0-14.5 4.1-18.7 12.4-47.7 64.2-116.1 111.9-196.9 130.6 0 0-20.8 6.2-20.8 24.9s20.8 24.9 20.8 24.9C609 426 660.8 500.6 660.8 585.5c0 114-93.2 207.2-207.2 207.2-114 0-207.2-93.2-207.2-207.2 0-84.9 51.9-157.6 124.4-190.6 0 0 24.9-6.2 24.9-24.9s-24.9-24.9-24.9-24.9c-230.1-41.5-265.3-300.5-265.3-300.5h451.8s20.7 0 20.7-20.7-20.7-20.7-20.7-20.7h-456C64 3.2 64 44.6 64 44.6V55c18.6 147.1 120.2 269.4 257 319.1-70.4 43.5-116.1 120.2-116.1 209.3 0 136.8 111.9 248.7 248.7 248.7s248.7-111.9 248.7-248.7c0-89.1-45.6-165.9-116.1-209.3C754 295.4 772.7 222.9 772.7 222.9c0.1-10.4-8.2-20.8-20.6-20.8zM821.8 41.2h-211c-11.4 0-20.7 9.3-20.7 20.7 0 11.4 9.3 20.7 20.7 20.7h210.9c11.4 0 20.7-9.3 20.7-20.7 0-11.4-9.3-20.7-20.6-20.7zM737 167.4v-210.9c0-11.4-9.3-20.7-20.7-20.7-11.4 0-20.7 9.3-20.7 20.7V167.4c0 11.4 9.3 20.7 20.7 20.7 11.4 0 20.7-9.4 20.7-20.7z"  horiz-adv-x="1024" />

    
    <glyph glyph-name="lajitong" unicode="&#59179;" d="M955.630057 608.12645c0 54.039644-12.974675 88.489289-62.761098 102.327099-32.768426 13.488665-122.117779 24.60806-205.906411 31.186523v13.454877c0 64.903067-76.001984 140.905051-140.90505 140.905051H477.133633c-64.903067 0-141.946342-74.960692-141.946342-139.864783v-14.420401c-86.436399-6.739213-175.306574-18.303998-207.288656-32.320988-47.947526-15.007087-61.225271-48.542403-61.22527-101.268402v-10.006431h106.15643v-631.630762c0-48.677556 42.949942-88.504647 91.627498-88.504647h492.192938c48.677556 0 88.504647 39.827091 88.504648 88.504647V598.120019h110.474155v10.006431zM403.87771 754.418161c0 40.564289 33.189243 73.753532 73.753531 73.753532h66.886333c40.564289 0 73.754555-33.189243 73.754556-73.753532v-8.610875c-34.149647 1.507159-70.285632 2.317052-107.679972 2.317052-37.043147 0-72.849441-0.794535-106.714448-2.275073v8.568896zM772.30339 17.063049c0-32.452045-26.551394-59.00344-59.00344-59.00344H308.849889c-32.452045 0-59.00344 26.551394-59.00344 59.00344V598.120019h522.456941V17.063049zM342.672917 31.618603h-0.701362c-15.713568 0-28.570496 12.856928-28.570496 28.570496V494.378934c0 15.713568 12.856928 28.570496 28.570496 28.570496h0.701362c15.713568 0 28.570496-12.856928 28.570496-28.570496V60.189099c0-15.713568-12.856928-28.570496-28.570496-28.570496zM500.494601 33.640776h-0.701362c-15.713568 0-28.570496 12.856928-28.570496 28.570496V496.401107c0 15.713568 12.856928 28.570496 28.570496 28.570496h0.701362c15.713568 0 28.570496-12.856928 28.570496-28.570496v-434.189835c0-15.713568-12.856928-28.570496-28.570496-28.570496zM670.749324 31.618603h-0.701361c-15.713568 0-28.570496 12.856928-28.570496 28.570496V494.378934c0 15.713568 12.856928 28.570496 28.570496 28.570496h0.701361c15.713568 0 28.570496-12.856928 28.570496-28.570496V60.189099c-0.001024-15.713568-12.856928-28.570496-28.570496-28.570496z"  horiz-adv-x="1024" />

    
    </font>
</defs>
</svg>
